  0
SECTION
  2
HEADER
  9
$ACADVER
  1
AC1014
  9
$HANDSEED
  5
FFFF
  9
$INSUNITS
 70
     4
  9
$MEASUREMENT
 70
     1
  0
ENDSEC
  0
SECTION
  2
TABLES
  0
TABLE
  2
VPORT
  5
8
330
0
100
AcDbSymbolTable
 70
     4
  0
VPORT
  5
2E
330
8
100
AcDbSymbolTableRecord
100
AcDbViewportTableRecord
  2
*ACTIVE
 70
     0
 10
0.0
 20
0.0
 11
1.0
 21
1.0
 12
210.0
 22
148.5
 13
0.0
 23
0.0
 14
10.0
 24
10.0
 15
10.0
 25
10.0
 16
0.0
 26
0.0
 36
1.0
 17
0.0
 27
0.0
 37
0.0
 40
341.0
 41
1.24
 42
50.0
 43
0.0
 44
0.0
 50
0.0
 51
0.0
 71
     0
 72
   100
 73
     1
 74
     3
 75
     0
 76
     0
 77
     0
 78
     0
  0
ENDTAB
  0
TABLE
  2
LTYPE
  5
5
330
0
100
AcDbSymbolTable
 70
     1
  0
LTYPE
  5
14
330
5
100
AcDbSymbolTableRecord
100
AcDbLinetypeTableRecord
  2
BYBLOCK
 70
     0
  3

 72
    65
 73
     0
 40
0.0
  0
LTYPE
  5
15
330
5
100
AcDbSymbolTableRecord
100
AcDbLinetypeTableRecord
  2
BYLAYER
 70
     0
  3

 72
    65
 73
     0
 40
0.0
  0
LTYPE
  5
16
330
5
100
AcDbSymbolTableRecord
100
AcDbLinetypeTableRecord
  2
CONTINUOUS
 70
     0
  3
Solid line
 72
    65
 73
     0
 40
0.0
  0
ENDTAB
  0
TABLE
  2
LAYER
  5
2
100
AcDbSymbolTable
 70
3
  0
LAYER
  5
50
100
AcDbSymbolTableRecord
100
AcDbLayerTableRecord
  2
0
 70
0
  6
CONTINUOUS
  0
LAYER
  5
51
100
AcDbSymbolTableRecord
100
AcDbLayerTableRecord
  2
Top
 70
0
  6
CONTINUOUS
  0
LAYER
  5
52
100
AcDbSymbolTableRecord
100
AcDbLayerTableRecord
  2
Bottom
 70
0
  6
CONTINUOUS
  0
ENDTAB
  0
TABLE
  2
STYLE
  5
3
330
0
100
AcDbSymbolTable
 70
     1
  0
STYLE
  5
11
330
3
100
AcDbSymbolTableRecord
100
AcDbTextStyleTableRecord
  2
STANDARD
 70
     0
 40
0.0
 41
1.0
 50
0.0
 71
     0
 42
2.5
  3
txt
  4

  0
ENDTAB
  0
TABLE
  2
VIEW
  5
6
330
0
100
AcDbSymbolTable
 70
     0
  0
ENDTAB
  0
TABLE
  2
UCS
  5
7
330
0
100
AcDbSymbolTable
 70
     0
  0
ENDTAB
  0
TABLE
  2
APPID
  5
9
330
0
100
AcDbSymbolTable
 70
     2
  0
APPID
  5
12
330
9
100
AcDbSymbolTableRecord
100
AcDbRegAppTableRecord
  2
ACAD
 70
     0
  0
ENDTAB
  0
TABLE
  2
DIMSTYLE
  5
A
330
0
100
AcDbSymbolTable
 70
     1
  0
DIMSTYLE
105
27
330
A
100
AcDbSymbolTableRecord
100
AcDbDimStyleTableRecord
  2
ISO-25
 70
     0
  3

  4

  5

  6

  7

 40
1.0
 41
2.5
 42
0.625
 43
3.75
 44
1.25
 45
0.0
 46
0.0
 47
0.0
 48
0.0
140
2.5
141
2.5
142
0.0
143
0.03937007874016
144
1.0
145
0.0
146
1.0
147
0.625
 71
     0
 72
     0
 73
     0
 74
     0
 75
     0
 76
     0
 77
     1
 78
     8
170
     0
171
     3
172
     1
173
     0
174
     0
175
     0
176
     0
177
     0
178
     0
270
     2
271
     2
272
     2
273
     2
274
     3
340
11
275
     0
280
     0
281
     0
282
     0
283
     0
284
     8
285
     0
286
     0
287
     3
288
     0
  0
ENDTAB
  0
TABLE
  2
BLOCK_RECORD
  5
1
330
0
100
AcDbSymbolTable
 70
     1
  0
BLOCK_RECORD
  5
1F
330
1
100
AcDbSymbolTableRecord
100
AcDbBlockTableRecord
  2
*MODEL_SPACE
  0
BLOCK_RECORD
  5
1B
330
1
100
AcDbSymbolTableRecord
100
AcDbBlockTableRecord
  2
*PAPER_SPACE
  0
ENDTAB
  0
ENDSEC
  0
SECTION
  2
BLOCKS
  0
BLOCK
  5
20
330
1F
100
AcDbEntity
  8
0
100
AcDbBlockBegin
  2
*MODEL_SPACE
 70
     0
 10
0.0
 20
0.0
 30
0.0
  3
*MODEL_SPACE
  1

  0
ENDBLK
  5
21
330
1F
100
AcDbEntity
  8
0
100
AcDbBlockEnd
  0
BLOCK
  5
1C
330
1B
100
AcDbEntity
 67
     1
  8
0
100
AcDbBlockBegin
  2
*PAPER_SPACE
  1

  0
ENDBLK
  5
1D
330
1B
100
AcDbEntity
 67
     1
  8
0
100
AcDbBlockEnd
  0
ENDSEC
  0
SECTION
  2
ENTITIES
  0
SPLINE
  5
100
100
AcDbEntity
  8
Top
 62
7
100
AcDbSpline
 70
8
 71
3
 72
8
 73
4
 74
0
 40
0
 40
0
 40
0
 40
0
 40
1
 40
1
 40
1
 40
1
 10
87.303926
 20
248.541134
 30
0.0
 10
88.800866
 20
248.541134
 30
0.0
 10
90.049956
 20
250.279094
 30
0.0
 10
90.049956
 20
251.787124
 30
0.0
  0
SPLINE
  5
101
100
AcDbEntity
  8
Top
 62
7
100
AcDbSpline
 70
8
 71
3
 72
8
 73
4
 74
0
 40
0
 40
0
 40
0
 40
0
 40
1
 40
1
 40
1
 40
1
 10
90.049926
 20
262.632190
 30
0.0
 10
90.049926
 20
262.934200
 30
0.0
 10
89.642896
 20
263.129810
 30
0.0
 10
89.351376
 20
263.298110
 30
0.0
  0
SPLINE
  5
102
100
AcDbEntity
  8
Top
 62
7
100
AcDbSpline
 70
8
 71
3
 72
8
 73
4
 74
0
 40
0
 40
0
 40
0
 40
0
 40
1
 40
1
 40
1
 40
1
 10
89.351376
 20
263.298110
 30
0.0
 10
89.073136
 20
263.458760
 30
0.0
 10
88.991636
 20
263.859620
 30
0.0
 10
88.991636
 20
264.158500
 30
0.0
  0
LWPOLYLINE
  5
103
100
AcDbEntity
  8
Top
 62
7
100
AcDbPolyline
 90
2
 70
0
 10
90.049956
 20
251.787124
 30
0.0
 10
90.049926
 20
262.632190
 30
0.0
  0
SPLINE
  5
104
100
AcDbEntity
  8
Top
 62
7
100
AcDbSpline
 70
8
 71
3
 72
8
 73
4
 74
0
 40
0
 40
0
 40
0
 40
0
 40
1
 40
1
 40
1
 40
1
 10
88.991636
 20
278.637520
 30
0.0
 10
88.991636
 20
278.890500
 30
0.0
 10
89.120736
 20
279.203810
 30
0.0
 10
89.393536
 20
279.361300
 30
0.0
  0
SPLINE
  5
105
100
AcDbEntity
  8
Top
 62
7
100
AcDbSpline
 70
8
 71
3
 72
8
 73
4
 74
0
 40
0
 40
0
 40
0
 40
0
 40
1
 40
1
 40
1
 40
1
 10
89.393536
 20
279.361300
 30
0.0
 10
89.667726
 20
279.519600
 30
0.0
 10
90.065896
 20
279.629200
 30
0.0
 10
90.065896
 20
279.875550
 30
0.0
  0
LWPOLYLINE
  5
106
100
AcDbEntity
  8
Top
 62
7
100
AcDbPolyline
 90
2
 70
0
 10
88.991636
 20
264.158500
 30
0.0
 10
88.991636
 20
278.637520
 30
0.0
  0
SPLINE
  5
107
100
AcDbEntity
  8
Top
 62
7
100
AcDbSpline
 70
8
 71
3
 72
8
 73
4
 74
0
 40
0
 40
0
 40
0
 40
0
 40
1
 40
1
 40
1
 40
1
 10
90.049996
 20
292.950000
 30
0.0
 10
90.049996
 20
295.198710
 30
0.0
 10
88.297726
 20
296.950000
 30
0.0
 10
86.049996
 20
296.950000
 30
0.0
  0
LWPOLYLINE
  5
108
100
AcDbEntity
  8
Top
 62
7
100
AcDbPolyline
 90
2
 70
0
 10
90.065896
 20
279.875550
 30
0.0
 10
90.049996
 20
292.950000
 30
0.0
  0
SPLINE
  5
109
100
AcDbEntity
  8
Top
 62
7
100
AcDbSpline
 70
8
 71
3
 72
8
 73
4
 74
0
 40
0
 40
0
 40
0
 40
0
 40
1
 40
1
 40
1
 40
1
 10
74.942906
 20
296.950000
 30
0.0
 10
73.939686
 20
296.950000
 30
0.0
 10
73.250906
 20
296.268410
 30
0.0
 10
73.250906
 20
295.258000
 30
0.0
  0
LWPOLYLINE
  5
10a
100
AcDbEntity
  8
Top
 62
7
100
AcDbPolyline
 90
2
 70
0
 10
86.049996
 20
296.950000
 30
0.0
 10
74.942906
 20
296.950000
 30
0.0
  0
SPLINE
  5
10b
100
AcDbEntity
  8
Top
 62
7
100
AcDbSpline
 70
8
 71
3
 72
8
 73
4
 74
0
 40
0
 40
0
 40
0
 40
0
 40
1
 40
1
 40
1
 40
1
 10
73.250906
 20
289.763010
 30
0.0
 10
73.250906
 20
289.265440
 30
0.0
 10
72.898666
 20
288.908500
 30
0.0
 10
72.395906
 20
288.908500
 30
0.0
  0
LWPOLYLINE
  5
10c
100
AcDbEntity
  8
Top
 62
7
100
AcDbPolyline
 90
2
 70
0
 10
73.250906
 20
295.258000
 30
0.0
 10
73.250906
 20
289.763010
 30
0.0
  0
SPLINE
  5
10d
100
AcDbEntity
  8
Top
 62
7
100
AcDbSpline
 70
8
 71
3
 72
8
 73
4
 74
0
 40
0
 40
0
 40
0
 40
0
 40
1
 40
1
 40
1
 40
1
 10
63.697906
 20
288.908500
 30
0.0
 10
63.199666
 20
288.908500
 30
0.0
 10
62.843906
 20
289.257540
 30
0.0
 10
62.843906
 20
289.762400
 30
0.0
  0
LWPOLYLINE
  5
10e
100
AcDbEntity
  8
Top
 62
7
100
AcDbPolyline
 90
2
 70
0
 10
72.395906
 20
288.908500
 30
0.0
 10
63.697906
 20
288.908500
 30
0.0
  0
SPLINE
  5
10f
100
AcDbEntity
  8
Top
 62
7
100
AcDbSpline
 70
8
 71
3
 72
8
 73
4
 74
0
 40
0
 40
0
 40
0
 40
0
 40
1
 40
1
 40
1
 40
1
 10
62.843906
 20
295.258000
 30
0.0
 10
62.843906
 20
296.261950
 30
0.0
 10
62.149076
 20
296.950000
 30
0.0
 10
61.151906
 20
296.950000
 30
0.0
  0
LWPOLYLINE
  5
110
100
AcDbEntity
  8
Top
 62
7
100
AcDbPolyline
 90
2
 70
0
 10
62.843906
 20
289.762400
 30
0.0
 10
62.843906
 20
295.258000
 30
0.0
  0
SPLINE
  5
111
100
AcDbEntity
  8
Top
 62
7
100
AcDbSpline
 70
8
 71
3
 72
8
 73
4
 74
0
 40
0
 40
0
 40
0
 40
0
 40
1
 40
1
 40
1
 40
1
 10
4.050000
 20
296.950000
 30
0.0
 10
1.798100
 20
296.950000
 30
0.0
 10
0.050000
 20
295.201700
 30
0.0
 10
0.050000
 20
292.950000
 30
0.0
  0
LWPOLYLINE
  5
112
100
AcDbEntity
  8
Top
 62
7
100
AcDbPolyline
 90
2
 70
0
 10
61.151906
 20
296.950000
 30
0.0
 10
4.050000
 20
296.950000
 30
0.0
  0
SPLINE
  5
113
100
AcDbEntity
  8
Top
 62
7
100
AcDbSpline
 70
8
 71
3
 72
8
 73
4
 74
0
 40
0
 40
0
 40
0
 40
0
 40
1
 40
1
 40
1
 40
1
 10
0.050000
 20
204.950002
 30
0.0
 10
0.050000
 20
202.699922
 30
0.0
 10
1.799840
 20
200.950002
 30
0.0
 10
4.050000
 20
200.950002
 30
0.0
  0
LWPOLYLINE
  5
114
100
AcDbEntity
  8
Top
 62
7
100
AcDbPolyline
 90
2
 70
0
 10
0.050000
 20
292.950000
 30
0.0
 10
0.050000
 20
204.950002
 30
0.0
  0
SPLINE
  5
115
100
AcDbEntity
  8
Top
 62
7
100
AcDbSpline
 70
8
 71
3
 72
8
 73
4
 74
0
 40
0
 40
0
 40
0
 40
0
 40
1
 40
1
 40
1
 40
1
 10
53.049970
 20
200.949822
 30
0.0
 10
55.289490
 20
200.949822
 30
0.0
 10
57.049970
 20
202.720882
 30
0.0
 10
57.049970
 20
204.949822
 30
0.0
  0
LWPOLYLINE
  5
116
100
AcDbEntity
  8
Top
 62
7
100
AcDbPolyline
 90
2
 70
0
 10
4.050000
 20
200.950002
 30
0.0
 10
53.049970
 20
200.949822
 30
0.0
  0
SPLINE
  5
117
100
AcDbEntity
  8
Top
 62
7
100
AcDbSpline
 70
8
 71
3
 72
8
 73
4
 74
0
 40
0
 40
0
 40
0
 40
0
 40
1
 40
1
 40
1
 40
1
 10
57.049970
 20
245.504134
 30
0.0
 10
57.049970
 20
247.198424
 30
0.0
 10
58.391020
 20
248.541134
 30
0.0
 10
60.087970
 20
248.541134
 30
0.0
  0
LWPOLYLINE
  5
118
100
AcDbEntity
  8
Top
 62
7
100
AcDbPolyline
 90
2
 70
0
 10
57.049970
 20
204.949822
 30
0.0
 10
57.049970
 20
245.504134
 30
0.0
  0
LWPOLYLINE
  5
119
100
AcDbEntity
  8
Top
 62
7
100
AcDbPolyline
 90
2
 70
0
 10
60.087970
 20
248.541134
 30
0.0
 10
87.303966
 20
248.541134
 30
0.0
  0
SPLINE
  5
11a
100
AcDbEntity
  8
Top
 62
7
100
AcDbSpline
 70
8
 71
3
 72
8
 73
4
 74
0
 40
0
 40
0
 40
0
 40
0
 40
1
 40
1
 40
1
 40
1
 10
16.676110
 20
217.872841
 30
0.0
 10
16.754800
 20
217.872841
 30
0.0
 10
16.830268
 20
217.841581
 30
0.0
 10
16.885910
 20
217.785939
 30
0.0
  0
SPLINE
  5
11b
100
AcDbEntity
  8
Top
 62
7
100
AcDbSpline
 70
8
 71
3
 72
8
 73
4
 74
0
 40
0
 40
0
 40
0
 40
0
 40
1
 40
1
 40
1
 40
1
 10
16.885910
 20
217.785939
 30
0.0
 10
16.941553
 20
217.730297
 30
0.0
 10
16.972812
 20
217.654829
 30
0.0
 10
16.972812
 20
217.576139
 30
0.0
  0
LWPOLYLINE
  5
11c
100
AcDbEntity
  8
Top
 62
7
100
AcDbPolyline
 90
2
 70
0
 10
3.423415
 20
217.872841
 30
0.0
 10
16.676110
 20
217.872841
 30
0.0
  0
SPLINE
  5
11d
100
AcDbEntity
  8
Top
 62
7
100
AcDbSpline
 70
8
 71
3
 72
8
 73
4
 74
0
 40
0
 40
0
 40
0
 40
0
 40
1
 40
1
 40
1
 40
1
 10
16.972812
 20
204.323444
 30
0.0
 10
16.972812
 20
204.244754
 30
0.0
 10
16.941553
 20
204.169286
 30
0.0
 10
16.885910
 20
204.113644
 30
0.0
  0
SPLINE
  5
11e
100
AcDbEntity
  8
Top
 62
7
100
AcDbSpline
 70
8
 71
3
 72
8
 73
4
 74
0
 40
0
 40
0
 40
0
 40
0
 40
1
 40
1
 40
1
 40
1
 10
16.885910
 20
204.113644
 30
0.0
 10
16.830268
 20
204.058002
 30
0.0
 10
16.754800
 20
204.026742
 30
0.0
 10
16.676110
 20
204.026742
 30
0.0
  0
LWPOLYLINE
  5
11f
100
AcDbEntity
  8
Top
 62
7
100
AcDbPolyline
 90
2
 70
0
 10
16.972812
 20
217.576139
 30
0.0
 10
16.972812
 20
204.323444
 30
0.0
  0
SPLINE
  5
120
100
AcDbEntity
  8
Top
 62
7
100
AcDbSpline
 70
8
 71
3
 72
8
 73
4
 74
0
 40
0
 40
0
 40
0
 40
0
 40
1
 40
1
 40
1
 40
1
 10
3.423415
 20
204.026742
 30
0.0
 10
3.344725
 20
204.026742
 30
0.0
 10
3.269258
 20
204.058002
 30
0.0
 10
3.213615
 20
204.113644
 30
0.0
  0
SPLINE
  5
121
100
AcDbEntity
  8
Top
 62
7
100
AcDbSpline
 70
8
 71
3
 72
8
 73
4
 74
0
 40
0
 40
0
 40
0
 40
0
 40
1
 40
1
 40
1
 40
1
 10
3.213615
 20
204.113644
 30
0.0
 10
3.157973
 20
204.169286
 30
0.0
 10
3.126713
 20
204.244754
 30
0.0
 10
3.126713
 20
204.323444
 30
0.0
  0
LWPOLYLINE
  5
122
100
AcDbEntity
  8
Top
 62
7
100
AcDbPolyline
 90
2
 70
0
 10
16.676110
 20
204.026742
 30
0.0
 10
3.423415
 20
204.026742
 30
0.0
  0
SPLINE
  5
123
100
AcDbEntity
  8
Top
 62
7
100
AcDbSpline
 70
8
 71
3
 72
8
 73
4
 74
0
 40
0
 40
0
 40
0
 40
0
 40
1
 40
1
 40
1
 40
1
 10
3.126713
 20
217.576139
 30
0.0
 10
3.126713
 20
217.654829
 30
0.0
 10
3.157973
 20
217.730297
 30
0.0
 10
3.213615
 20
217.785939
 30
0.0
  0
SPLINE
  5
124
100
AcDbEntity
  8
Top
 62
7
100
AcDbSpline
 70
8
 71
3
 72
8
 73
4
 74
0
 40
0
 40
0
 40
0
 40
0
 40
1
 40
1
 40
1
 40
1
 10
3.213615
 20
217.785939
 30
0.0
 10
3.269258
 20
217.841581
 30
0.0
 10
3.344725
 20
217.872841
 30
0.0
 10
3.423415
 20
217.872841
 30
0.0
  0
LWPOLYLINE
  5
125
100
AcDbEntity
  8
Top
 62
7
100
AcDbPolyline
 90
2
 70
0
 10
3.126713
 20
204.323444
 30
0.0
 10
3.126713
 20
217.576139
 30
0.0
  0
LWPOLYLINE
  5
126
100
AcDbEntity
  8
Top
 62
7
100
AcDbPolyline
 90
1
 70
1
 10
3.423415
 20
217.872841
 30
0.0
  0
SPLINE
  5
127
100
AcDbEntity
  8
Top
 62
7
100
AcDbSpline
 70
8
 71
3
 72
8
 73
4
 74
0
 40
0
 40
0
 40
0
 40
0
 40
1
 40
1
 40
1
 40
1
 10
35.676102
 20
217.872841
 30
0.0
 10
35.754792
 20
217.872841
 30
0.0
 10
35.830260
 20
217.841581
 30
0.0
 10
35.885902
 20
217.785939
 30
0.0
  0
SPLINE
  5
128
100
AcDbEntity
  8
Top
 62
7
100
AcDbSpline
 70
8
 71
3
 72
8
 73
4
 74
0
 40
0
 40
0
 40
0
 40
0
 40
1
 40
1
 40
1
 40
1
 10
35.885902
 20
217.785939
 30
0.0
 10
35.941544
 20
217.730297
 30
0.0
 10
35.972804
 20
217.654829
 30
0.0
 10
35.972804
 20
217.576139
 30
0.0
  0
LWPOLYLINE
  5
129
100
AcDbEntity
  8
Top
 62
7
100
AcDbPolyline
 90
2
 70
0
 10
22.423407
 20
217.872841
 30
0.0
 10
35.676102
 20
217.872841
 30
0.0
  0
SPLINE
  5
12a
100
AcDbEntity
  8
Top
 62
7
100
AcDbSpline
 70
8
 71
3
 72
8
 73
4
 74
0
 40
0
 40
0
 40
0
 40
0
 40
1
 40
1
 40
1
 40
1
 10
35.972804
 20
204.323444
 30
0.0
 10
35.972804
 20
204.244754
 30
0.0
 10
35.941544
 20
204.169286
 30
0.0
 10
35.885902
 20
204.113644
 30
0.0
  0
SPLINE
  5
12b
100
AcDbEntity
  8
Top
 62
7
100
AcDbSpline
 70
8
 71
3
 72
8
 73
4
 74
0
 40
0
 40
0
 40
0
 40
0
 40
1
 40
1
 40
1
 40
1
 10
35.885902
 20
204.113644
 30
0.0
 10
35.830260
 20
204.058002
 30
0.0
 10
35.754792
 20
204.026742
 30
0.0
 10
35.676102
 20
204.026742
 30
0.0
  0
LWPOLYLINE
  5
12c
100
AcDbEntity
  8
Top
 62
7
100
AcDbPolyline
 90
2
 70
0
 10
35.972804
 20
217.576139
 30
0.0
 10
35.972804
 20
204.323444
 30
0.0
  0
SPLINE
  5
12d
100
AcDbEntity
  8
Top
 62
7
100
AcDbSpline
 70
8
 71
3
 72
8
 73
4
 74
0
 40
0
 40
0
 40
0
 40
0
 40
1
 40
1
 40
1
 40
1
 10
22.423407
 20
204.026742
 30
0.0
 10
22.344717
 20
204.026742
 30
0.0
 10
22.269249
 20
204.058002
 30
0.0
 10
22.213607
 20
204.113644
 30
0.0
  0
SPLINE
  5
12e
100
AcDbEntity
  8
Top
 62
7
100
AcDbSpline
 70
8
 71
3
 72
8
 73
4
 74
0
 40
0
 40
0
 40
0
 40
0
 40
1
 40
1
 40
1
 40
1
 10
22.213607
 20
204.113644
 30
0.0
 10
22.157965
 20
204.169286
 30
0.0
 10
22.126705
 20
204.244754
 30
0.0
 10
22.126705
 20
204.323444
 30
0.0
  0
LWPOLYLINE
  5
12f
100
AcDbEntity
  8
Top
 62
7
100
AcDbPolyline
 90
2
 70
0
 10
35.676102
 20
204.026742
 30
0.0
 10
22.423407
 20
204.026742
 30
0.0
  0
SPLINE
  5
130
100
AcDbEntity
  8
Top
 62
7
100
AcDbSpline
 70
8
 71
3
 72
8
 73
4
 74
0
 40
0
 40
0
 40
0
 40
0
 40
1
 40
1
 40
1
 40
1
 10
22.126705
 20
217.576139
 30
0.0
 10
22.126705
 20
217.654829
 30
0.0
 10
22.157965
 20
217.730297
 30
0.0
 10
22.213607
 20
217.785939
 30
0.0
  0
SPLINE
  5
131
100
AcDbEntity
  8
Top
 62
7
100
AcDbSpline
 70
8
 71
3
 72
8
 73
4
 74
0
 40
0
 40
0
 40
0
 40
0
 40
1
 40
1
 40
1
 40
1
 10
22.213607
 20
217.785939
 30
0.0
 10
22.269249
 20
217.841581
 30
0.0
 10
22.344717
 20
217.872841
 30
0.0
 10
22.423407
 20
217.872841
 30
0.0
  0
LWPOLYLINE
  5
132
100
AcDbEntity
  8
Top
 62
7
100
AcDbPolyline
 90
2
 70
0
 10
22.126705
 20
204.323444
 30
0.0
 10
22.126705
 20
217.576139
 30
0.0
  0
LWPOLYLINE
  5
133
100
AcDbEntity
  8
Top
 62
7
100
AcDbPolyline
 90
1
 70
1
 10
22.423407
 20
217.872841
 30
0.0
  0
SPLINE
  5
134
100
AcDbEntity
  8
Top
 62
7
100
AcDbSpline
 70
8
 71
3
 72
8
 73
4
 74
0
 40
0
 40
0
 40
0
 40
0
 40
1
 40
1
 40
1
 40
1
 10
54.676102
 20
217.872841
 30
0.0
 10
54.754792
 20
217.872841
 30
0.0
 10
54.830260
 20
217.841581
 30
0.0
 10
54.885902
 20
217.785939
 30
0.0
  0
SPLINE
  5
135
100
AcDbEntity
  8
Top
 62
7
100
AcDbSpline
 70
8
 71
3
 72
8
 73
4
 74
0
 40
0
 40
0
 40
0
 40
0
 40
1
 40
1
 40
1
 40
1
 10
54.885902
 20
217.785939
 30
0.0
 10
54.941544
 20
217.730297
 30
0.0
 10
54.972804
 20
217.654829
 30
0.0
 10
54.972804
 20
217.576139
 30
0.0
  0
LWPOLYLINE
  5
136
100
AcDbEntity
  8
Top
 62
7
100
AcDbPolyline
 90
2
 70
0
 10
41.423407
 20
217.872841
 30
0.0
 10
54.676102
 20
217.872841
 30
0.0
  0
SPLINE
  5
137
100
AcDbEntity
  8
Top
 62
7
100
AcDbSpline
 70
8
 71
3
 72
8
 73
4
 74
0
 40
0
 40
0
 40
0
 40
0
 40
1
 40
1
 40
1
 40
1
 10
54.972804
 20
204.323444
 30
0.0
 10
54.972804
 20
204.244754
 30
0.0
 10
54.941544
 20
204.169286
 30
0.0
 10
54.885902
 20
204.113644
 30
0.0
  0
SPLINE
  5
138
100
AcDbEntity
  8
Top
 62
7
100
AcDbSpline
 70
8
 71
3
 72
8
 73
4
 74
0
 40
0
 40
0
 40
0
 40
0
 40
1
 40
1
 40
1
 40
1
 10
54.885902
 20
204.113644
 30
0.0
 10
54.830260
 20
204.058002
 30
0.0
 10
54.754792
 20
204.026742
 30
0.0
 10
54.676102
 20
204.026742
 30
0.0
  0
LWPOLYLINE
  5
139
100
AcDbEntity
  8
Top
 62
7
100
AcDbPolyline
 90
2
 70
0
 10
54.972804
 20
217.576139
 30
0.0
 10
54.972804
 20
204.323444
 30
0.0
  0
SPLINE
  5
13a
100
AcDbEntity
  8
Top
 62
7
100
AcDbSpline
 70
8
 71
3
 72
8
 73
4
 74
0
 40
0
 40
0
 40
0
 40
0
 40
1
 40
1
 40
1
 40
1
 10
41.423407
 20
204.026742
 30
0.0
 10
41.344717
 20
204.026742
 30
0.0
 10
41.269249
 20
204.058002
 30
0.0
 10
41.213607
 20
204.113644
 30
0.0
  0
SPLINE
  5
13b
100
AcDbEntity
  8
Top
 62
7
100
AcDbSpline
 70
8
 71
3
 72
8
 73
4
 74
0
 40
0
 40
0
 40
0
 40
0
 40
1
 40
1
 40
1
 40
1
 10
41.213607
 20
204.113644
 30
0.0
 10
41.157965
 20
204.169286
 30
0.0
 10
41.126705
 20
204.244754
 30
0.0
 10
41.126705
 20
204.323444
 30
0.0
  0
LWPOLYLINE
  5
13c
100
AcDbEntity
  8
Top
 62
7
100
AcDbPolyline
 90
2
 70
0
 10
54.676102
 20
204.026742
 30
0.0
 10
41.423407
 20
204.026742
 30
0.0
  0
SPLINE
  5
13d
100
AcDbEntity
  8
Top
 62
7
100
AcDbSpline
 70
8
 71
3
 72
8
 73
4
 74
0
 40
0
 40
0
 40
0
 40
0
 40
1
 40
1
 40
1
 40
1
 10
41.126705
 20
217.576139
 30
0.0
 10
41.126705
 20
217.654829
 30
0.0
 10
41.157965
 20
217.730297
 30
0.0
 10
41.213607
 20
217.785939
 30
0.0
  0
SPLINE
  5
13e
100
AcDbEntity
  8
Top
 62
7
100
AcDbSpline
 70
8
 71
3
 72
8
 73
4
 74
0
 40
0
 40
0
 40
0
 40
0
 40
1
 40
1
 40
1
 40
1
 10
41.213607
 20
217.785939
 30
0.0
 10
41.269249
 20
217.841581
 30
0.0
 10
41.344717
 20
217.872841
 30
0.0
 10
41.423407
 20
217.872841
 30
0.0
  0
LWPOLYLINE
  5
13f
100
AcDbEntity
  8
Top
 62
7
100
AcDbPolyline
 90
2
 70
0
 10
41.126705
 20
204.323444
 30
0.0
 10
41.126705
 20
217.576139
 30
0.0
  0
LWPOLYLINE
  5
140
100
AcDbEntity
  8
Top
 62
7
100
AcDbPolyline
 90
1
 70
1
 10
41.423407
 20
217.872841
 30
0.0
  0
SPLINE
  5
141
100
AcDbEntity
  8
Top
 62
7
100
AcDbSpline
 70
8
 71
3
 72
8
 73
4
 74
0
 40
0
 40
0
 40
0
 40
0
 40
1
 40
1
 40
1
 40
1
 10
16.676110
 20
236.872864
 30
0.0
 10
16.754800
 20
236.872864
 30
0.0
 10
16.830268
 20
236.841604
 30
0.0
 10
16.885910
 20
236.785962
 30
0.0
  0
SPLINE
  5
142
100
AcDbEntity
  8
Top
 62
7
100
AcDbSpline
 70
8
 71
3
 72
8
 73
4
 74
0
 40
0
 40
0
 40
0
 40
0
 40
1
 40
1
 40
1
 40
1
 10
16.885910
 20
236.785962
 30
0.0
 10
16.941553
 20
236.730320
 30
0.0
 10
16.972812
 20
236.654852
 30
0.0
 10
16.972812
 20
236.576162
 30
0.0
  0
LWPOLYLINE
  5
143
100
AcDbEntity
  8
Top
 62
7
100
AcDbPolyline
 90
2
 70
0
 10
3.423415
 20
236.872864
 30
0.0
 10
16.676110
 20
236.872864
 30
0.0
  0
SPLINE
  5
144
100
AcDbEntity
  8
Top
 62
7
100
AcDbSpline
 70
8
 71
3
 72
8
 73
4
 74
0
 40
0
 40
0
 40
0
 40
0
 40
1
 40
1
 40
1
 40
1
 10
16.972812
 20
223.323467
 30
0.0
 10
16.972812
 20
223.244777
 30
0.0
 10
16.941553
 20
223.169309
 30
0.0
 10
16.885910
 20
223.113667
 30
0.0
  0
SPLINE
  5
145
100
AcDbEntity
  8
Top
 62
7
100
AcDbSpline
 70
8
 71
3
 72
8
 73
4
 74
0
 40
0
 40
0
 40
0
 40
0
 40
1
 40
1
 40
1
 40
1
 10
16.885910
 20
223.113667
 30
0.0
 10
16.830268
 20
223.058025
 30
0.0
 10
16.754800
 20
223.026765
 30
0.0
 10
16.676110
 20
223.026765
 30
0.0
  0
LWPOLYLINE
  5
146
100
AcDbEntity
  8
Top
 62
7
100
AcDbPolyline
 90
2
 70
0
 10
16.972812
 20
236.576162
 30
0.0
 10
16.972812
 20
223.323467
 30
0.0
  0
SPLINE
  5
147
100
AcDbEntity
  8
Top
 62
7
100
AcDbSpline
 70
8
 71
3
 72
8
 73
4
 74
0
 40
0
 40
0
 40
0
 40
0
 40
1
 40
1
 40
1
 40
1
 10
3.423415
 20
223.026765
 30
0.0
 10
3.344725
 20
223.026765
 30
0.0
 10
3.269258
 20
223.058025
 30
0.0
 10
3.213615
 20
223.113667
 30
0.0
  0
SPLINE
  5
148
100
AcDbEntity
  8
Top
 62
7
100
AcDbSpline
 70
8
 71
3
 72
8
 73
4
 74
0
 40
0
 40
0
 40
0
 40
0
 40
1
 40
1
 40
1
 40
1
 10
3.213615
 20
223.113667
 30
0.0
 10
3.157973
 20
223.169309
 30
0.0
 10
3.126713
 20
223.244777
 30
0.0
 10
3.126713
 20
223.323467
 30
0.0
  0
LWPOLYLINE
  5
149
100
AcDbEntity
  8
Top
 62
7
100
AcDbPolyline
 90
2
 70
0
 10
16.676110
 20
223.026765
 30
0.0
 10
3.423415
 20
223.026765
 30
0.0
  0
SPLINE
  5
14a
100
AcDbEntity
  8
Top
 62
7
100
AcDbSpline
 70
8
 71
3
 72
8
 73
4
 74
0
 40
0
 40
0
 40
0
 40
0
 40
1
 40
1
 40
1
 40
1
 10
3.126713
 20
236.576162
 30
0.0
 10
3.126713
 20
236.654852
 30
0.0
 10
3.157973
 20
236.730320
 30
0.0
 10
3.213615
 20
236.785962
 30
0.0
  0
SPLINE
  5
14b
100
AcDbEntity
  8
Top
 62
7
100
AcDbSpline
 70
8
 71
3
 72
8
 73
4
 74
0
 40
0
 40
0
 40
0
 40
0
 40
1
 40
1
 40
1
 40
1
 10
3.213615
 20
236.785962
 30
0.0
 10
3.269258
 20
236.841604
 30
0.0
 10
3.344725
 20
236.872864
 30
0.0
 10
3.423415
 20
236.872864
 30
0.0
  0
LWPOLYLINE
  5
14c
100
AcDbEntity
  8
Top
 62
7
100
AcDbPolyline
 90
2
 70
0
 10
3.126713
 20
223.323467
 30
0.0
 10
3.126713
 20
236.576162
 30
0.0
  0
LWPOLYLINE
  5
14d
100
AcDbEntity
  8
Top
 62
7
100
AcDbPolyline
 90
1
 70
1
 10
3.423415
 20
236.872864
 30
0.0
  0
SPLINE
  5
14e
100
AcDbEntity
  8
Top
 62
7
100
AcDbSpline
 70
8
 71
3
 72
8
 73
4
 74
0
 40
0
 40
0
 40
0
 40
0
 40
1
 40
1
 40
1
 40
1
 10
35.676102
 20
236.872864
 30
0.0
 10
35.754792
 20
236.872864
 30
0.0
 10
35.830260
 20
236.841604
 30
0.0
 10
35.885902
 20
236.785962
 30
0.0
  0
SPLINE
  5
14f
100
AcDbEntity
  8
Top
 62
7
100
AcDbSpline
 70
8
 71
3
 72
8
 73
4
 74
0
 40
0
 40
0
 40
0
 40
0
 40
1
 40
1
 40
1
 40
1
 10
35.885902
 20
236.785962
 30
0.0
 10
35.941544
 20
236.730320
 30
0.0
 10
35.972804
 20
236.654852
 30
0.0
 10
35.972804
 20
236.576162
 30
0.0
  0
LWPOLYLINE
  5
150
100
AcDbEntity
  8
Top
 62
7
100
AcDbPolyline
 90
2
 70
0
 10
22.423407
 20
236.872864
 30
0.0
 10
35.676102
 20
236.872864
 30
0.0
  0
SPLINE
  5
151
100
AcDbEntity
  8
Top
 62
7
100
AcDbSpline
 70
8
 71
3
 72
8
 73
4
 74
0
 40
0
 40
0
 40
0
 40
0
 40
1
 40
1
 40
1
 40
1
 10
35.972804
 20
223.323467
 30
0.0
 10
35.972804
 20
223.244777
 30
0.0
 10
35.941544
 20
223.169309
 30
0.0
 10
35.885902
 20
223.113667
 30
0.0
  0
SPLINE
  5
152
100
AcDbEntity
  8
Top
 62
7
100
AcDbSpline
 70
8
 71
3
 72
8
 73
4
 74
0
 40
0
 40
0
 40
0
 40
0
 40
1
 40
1
 40
1
 40
1
 10
35.885902
 20
223.113667
 30
0.0
 10
35.830260
 20
223.058025
 30
0.0
 10
35.754792
 20
223.026765
 30
0.0
 10
35.676102
 20
223.026765
 30
0.0
  0
LWPOLYLINE
  5
153
100
AcDbEntity
  8
Top
 62
7
100
AcDbPolyline
 90
2
 70
0
 10
35.972804
 20
236.576162
 30
0.0
 10
35.972804
 20
223.323467
 30
0.0
  0
SPLINE
  5
154
100
AcDbEntity
  8
Top
 62
7
100
AcDbSpline
 70
8
 71
3
 72
8
 73
4
 74
0
 40
0
 40
0
 40
0
 40
0
 40
1
 40
1
 40
1
 40
1
 10
22.423407
 20
223.026765
 30
0.0
 10
22.344717
 20
223.026765
 30
0.0
 10
22.269249
 20
223.058025
 30
0.0
 10
22.213607
 20
223.113667
 30
0.0
  0
SPLINE
  5
155
100
AcDbEntity
  8
Top
 62
7
100
AcDbSpline
 70
8
 71
3
 72
8
 73
4
 74
0
 40
0
 40
0
 40
0
 40
0
 40
1
 40
1
 40
1
 40
1
 10
22.213607
 20
223.113667
 30
0.0
 10
22.157965
 20
223.169309
 30
0.0
 10
22.126705
 20
223.244777
 30
0.0
 10
22.126705
 20
223.323467
 30
0.0
  0
LWPOLYLINE
  5
156
100
AcDbEntity
  8
Top
 62
7
100
AcDbPolyline
 90
2
 70
0
 10
35.676102
 20
223.026765
 30
0.0
 10
22.423407
 20
223.026765
 30
0.0
  0
SPLINE
  5
157
100
AcDbEntity
  8
Top
 62
7
100
AcDbSpline
 70
8
 71
3
 72
8
 73
4
 74
0
 40
0
 40
0
 40
0
 40
0
 40
1
 40
1
 40
1
 40
1
 10
22.126705
 20
236.576162
 30
0.0
 10
22.126705
 20
236.654852
 30
0.0
 10
22.157965
 20
236.730320
 30
0.0
 10
22.213607
 20
236.785962
 30
0.0
  0
SPLINE
  5
158
100
AcDbEntity
  8
Top
 62
7
100
AcDbSpline
 70
8
 71
3
 72
8
 73
4
 74
0
 40
0
 40
0
 40
0
 40
0
 40
1
 40
1
 40
1
 40
1
 10
22.213607
 20
236.785962
 30
0.0
 10
22.269249
 20
236.841604
 30
0.0
 10
22.344717
 20
236.872864
 30
0.0
 10
22.423407
 20
236.872864
 30
0.0
  0
LWPOLYLINE
  5
159
100
AcDbEntity
  8
Top
 62
7
100
AcDbPolyline
 90
2
 70
0
 10
22.126705
 20
223.323467
 30
0.0
 10
22.126705
 20
236.576162
 30
0.0
  0
LWPOLYLINE
  5
15a
100
AcDbEntity
  8
Top
 62
7
100
AcDbPolyline
 90
1
 70
1
 10
22.423407
 20
236.872864
 30
0.0
  0
SPLINE
  5
15b
100
AcDbEntity
  8
Top
 62
7
100
AcDbSpline
 70
8
 71
3
 72
8
 73
4
 74
0
 40
0
 40
0
 40
0
 40
0
 40
1
 40
1
 40
1
 40
1
 10
54.676102
 20
236.872864
 30
0.0
 10
54.754792
 20
236.872864
 30
0.0
 10
54.830260
 20
236.841604
 30
0.0
 10
54.885902
 20
236.785962
 30
0.0
  0
SPLINE
  5
15c
100
AcDbEntity
  8
Top
 62
7
100
AcDbSpline
 70
8
 71
3
 72
8
 73
4
 74
0
 40
0
 40
0
 40
0
 40
0
 40
1
 40
1
 40
1
 40
1
 10
54.885902
 20
236.785962
 30
0.0
 10
54.941544
 20
236.730320
 30
0.0
 10
54.972804
 20
236.654852
 30
0.0
 10
54.972804
 20
236.576162
 30
0.0
  0
LWPOLYLINE
  5
15d
100
AcDbEntity
  8
Top
 62
7
100
AcDbPolyline
 90
2
 70
0
 10
41.423407
 20
236.872864
 30
0.0
 10
54.676102
 20
236.872864
 30
0.0
  0
SPLINE
  5
15e
100
AcDbEntity
  8
Top
 62
7
100
AcDbSpline
 70
8
 71
3
 72
8
 73
4
 74
0
 40
0
 40
0
 40
0
 40
0
 40
1
 40
1
 40
1
 40
1
 10
54.972804
 20
223.323467
 30
0.0
 10
54.972804
 20
223.244777
 30
0.0
 10
54.941544
 20
223.169309
 30
0.0
 10
54.885902
 20
223.113667
 30
0.0
  0
SPLINE
  5
15f
100
AcDbEntity
  8
Top
 62
7
100
AcDbSpline
 70
8
 71
3
 72
8
 73
4
 74
0
 40
0
 40
0
 40
0
 40
0
 40
1
 40
1
 40
1
 40
1
 10
54.885902
 20
223.113667
 30
0.0
 10
54.830260
 20
223.058025
 30
0.0
 10
54.754792
 20
223.026765
 30
0.0
 10
54.676102
 20
223.026765
 30
0.0
  0
LWPOLYLINE
  5
160
100
AcDbEntity
  8
Top
 62
7
100
AcDbPolyline
 90
2
 70
0
 10
54.972804
 20
236.576162
 30
0.0
 10
54.972804
 20
223.323467
 30
0.0
  0
SPLINE
  5
161
100
AcDbEntity
  8
Top
 62
7
100
AcDbSpline
 70
8
 71
3
 72
8
 73
4
 74
0
 40
0
 40
0
 40
0
 40
0
 40
1
 40
1
 40
1
 40
1
 10
41.423407
 20
223.026765
 30
0.0
 10
41.344717
 20
223.026765
 30
0.0
 10
41.269249
 20
223.058025
 30
0.0
 10
41.213607
 20
223.113667
 30
0.0
  0
SPLINE
  5
162
100
AcDbEntity
  8
Top
 62
7
100
AcDbSpline
 70
8
 71
3
 72
8
 73
4
 74
0
 40
0
 40
0
 40
0
 40
0
 40
1
 40
1
 40
1
 40
1
 10
41.213607
 20
223.113667
 30
0.0
 10
41.157965
 20
223.169309
 30
0.0
 10
41.126705
 20
223.244777
 30
0.0
 10
41.126705
 20
223.323467
 30
0.0
  0
LWPOLYLINE
  5
163
100
AcDbEntity
  8
Top
 62
7
100
AcDbPolyline
 90
2
 70
0
 10
54.676102
 20
223.026765
 30
0.0
 10
41.423407
 20
223.026765
 30
0.0
  0
SPLINE
  5
164
100
AcDbEntity
  8
Top
 62
7
100
AcDbSpline
 70
8
 71
3
 72
8
 73
4
 74
0
 40
0
 40
0
 40
0
 40
0
 40
1
 40
1
 40
1
 40
1
 10
41.126705
 20
236.576162
 30
0.0
 10
41.126705
 20
236.654852
 30
0.0
 10
41.157965
 20
236.730320
 30
0.0
 10
41.213607
 20
236.785962
 30
0.0
  0
SPLINE
  5
165
100
AcDbEntity
  8
Top
 62
7
100
AcDbSpline
 70
8
 71
3
 72
8
 73
4
 74
0
 40
0
 40
0
 40
0
 40
0
 40
1
 40
1
 40
1
 40
1
 10
41.213607
 20
236.785962
 30
0.0
 10
41.269249
 20
236.841604
 30
0.0
 10
41.344717
 20
236.872864
 30
0.0
 10
41.423407
 20
236.872864
 30
0.0
  0
LWPOLYLINE
  5
166
100
AcDbEntity
  8
Top
 62
7
100
AcDbPolyline
 90
2
 70
0
 10
41.126705
 20
223.323467
 30
0.0
 10
41.126705
 20
236.576162
 30
0.0
  0
LWPOLYLINE
  5
167
100
AcDbEntity
  8
Top
 62
7
100
AcDbPolyline
 90
1
 70
1
 10
41.423407
 20
236.872864
 30
0.0
  0
SPLINE
  5
168
100
AcDbEntity
  8
Top
 62
7
100
AcDbSpline
 70
8
 71
3
 72
8
 73
4
 74
0
 40
0
 40
0
 40
0
 40
0
 40
1
 40
1
 40
1
 40
1
 10
16.676110
 20
255.872864
 30
0.0
 10
16.754800
 20
255.872864
 30
0.0
 10
16.830268
 20
255.841604
 30
0.0
 10
16.885910
 20
255.785962
 30
0.0
  0
SPLINE
  5
169
100
AcDbEntity
  8
Top
 62
7
100
AcDbSpline
 70
8
 71
3
 72
8
 73
4
 74
0
 40
0
 40
0
 40
0
 40
0
 40
1
 40
1
 40
1
 40
1
 10
16.885910
 20
255.785962
 30
0.0
 10
16.941553
 20
255.730320
 30
0.0
 10
16.972812
 20
255.654852
 30
0.0
 10
16.972812
 20
255.576162
 30
0.0
  0
LWPOLYLINE
  5
16a
100
AcDbEntity
  8
Top
 62
7
100
AcDbPolyline
 90
2
 70
0
 10
3.423415
 20
255.872864
 30
0.0
 10
16.676110
 20
255.872864
 30
0.0
  0
SPLINE
  5
16b
100
AcDbEntity
  8
Top
 62
7
100
AcDbSpline
 70
8
 71
3
 72
8
 73
4
 74
0
 40
0
 40
0
 40
0
 40
0
 40
1
 40
1
 40
1
 40
1
 10
16.972812
 20
242.323467
 30
0.0
 10
16.972812
 20
242.244777
 30
0.0
 10
16.941553
 20
242.169309
 30
0.0
 10
16.885910
 20
242.113667
 30
0.0
  0
SPLINE
  5
16c
100
AcDbEntity
  8
Top
 62
7
100
AcDbSpline
 70
8
 71
3
 72
8
 73
4
 74
0
 40
0
 40
0
 40
0
 40
0
 40
1
 40
1
 40
1
 40
1
 10
16.885910
 20
242.113667
 30
0.0
 10
16.830268
 20
242.058025
 30
0.0
 10
16.754800
 20
242.026765
 30
0.0
 10
16.676110
 20
242.026765
 30
0.0
  0
LWPOLYLINE
  5
16d
100
AcDbEntity
  8
Top
 62
7
100
AcDbPolyline
 90
2
 70
0
 10
16.972812
 20
255.576162
 30
0.0
 10
16.972812
 20
242.323467
 30
0.0
  0
SPLINE
  5
16e
100
AcDbEntity
  8
Top
 62
7
100
AcDbSpline
 70
8
 71
3
 72
8
 73
4
 74
0
 40
0
 40
0
 40
0
 40
0
 40
1
 40
1
 40
1
 40
1
 10
3.423415
 20
242.026765
 30
0.0
 10
3.344725
 20
242.026765
 30
0.0
 10
3.269258
 20
242.058025
 30
0.0
 10
3.213615
 20
242.113667
 30
0.0
  0
SPLINE
  5
16f
100
AcDbEntity
  8
Top
 62
7
100
AcDbSpline
 70
8
 71
3
 72
8
 73
4
 74
0
 40
0
 40
0
 40
0
 40
0
 40
1
 40
1
 40
1
 40
1
 10
3.213615
 20
242.113667
 30
0.0
 10
3.157973
 20
242.169309
 30
0.0
 10
3.126713
 20
242.244777
 30
0.0
 10
3.126713
 20
242.323467
 30
0.0
  0
LWPOLYLINE
  5
170
100
AcDbEntity
  8
Top
 62
7
100
AcDbPolyline
 90
2
 70
0
 10
16.676110
 20
242.026765
 30
0.0
 10
3.423415
 20
242.026765
 30
0.0
  0
SPLINE
  5
171
100
AcDbEntity
  8
Top
 62
7
100
AcDbSpline
 70
8
 71
3
 72
8
 73
4
 74
0
 40
0
 40
0
 40
0
 40
0
 40
1
 40
1
 40
1
 40
1
 10
3.126713
 20
255.576162
 30
0.0
 10
3.126713
 20
255.654852
 30
0.0
 10
3.157973
 20
255.730320
 30
0.0
 10
3.213615
 20
255.785962
 30
0.0
  0
SPLINE
  5
172
100
AcDbEntity
  8
Top
 62
7
100
AcDbSpline
 70
8
 71
3
 72
8
 73
4
 74
0
 40
0
 40
0
 40
0
 40
0
 40
1
 40
1
 40
1
 40
1
 10
3.213615
 20
255.785962
 30
0.0
 10
3.269258
 20
255.841604
 30
0.0
 10
3.344725
 20
255.872864
 30
0.0
 10
3.423415
 20
255.872864
 30
0.0
  0
LWPOLYLINE
  5
173
100
AcDbEntity
  8
Top
 62
7
100
AcDbPolyline
 90
2
 70
0
 10
3.126713
 20
242.323467
 30
0.0
 10
3.126713
 20
255.576162
 30
0.0
  0
LWPOLYLINE
  5
174
100
AcDbEntity
  8
Top
 62
7
100
AcDbPolyline
 90
1
 70
1
 10
3.423415
 20
255.872864
 30
0.0
  0
SPLINE
  5
175
100
AcDbEntity
  8
Top
 62
7
100
AcDbSpline
 70
8
 71
3
 72
8
 73
4
 74
0
 40
0
 40
0
 40
0
 40
0
 40
1
 40
1
 40
1
 40
1
 10
35.676102
 20
255.872864
 30
0.0
 10
35.754792
 20
255.872864
 30
0.0
 10
35.830260
 20
255.841604
 30
0.0
 10
35.885902
 20
255.785962
 30
0.0
  0
SPLINE
  5
176
100
AcDbEntity
  8
Top
 62
7
100
AcDbSpline
 70
8
 71
3
 72
8
 73
4
 74
0
 40
0
 40
0
 40
0
 40
0
 40
1
 40
1
 40
1
 40
1
 10
35.885902
 20
255.785962
 30
0.0
 10
35.941544
 20
255.730320
 30
0.0
 10
35.972804
 20
255.654852
 30
0.0
 10
35.972804
 20
255.576162
 30
0.0
  0
LWPOLYLINE
  5
177
100
AcDbEntity
  8
Top
 62
7
100
AcDbPolyline
 90
2
 70
0
 10
22.423407
 20
255.872864
 30
0.0
 10
35.676102
 20
255.872864
 30
0.0
  0
SPLINE
  5
178
100
AcDbEntity
  8
Top
 62
7
100
AcDbSpline
 70
8
 71
3
 72
8
 73
4
 74
0
 40
0
 40
0
 40
0
 40
0
 40
1
 40
1
 40
1
 40
1
 10
35.972804
 20
242.323467
 30
0.0
 10
35.972804
 20
242.244777
 30
0.0
 10
35.941544
 20
242.169309
 30
0.0
 10
35.885902
 20
242.113667
 30
0.0
  0
SPLINE
  5
179
100
AcDbEntity
  8
Top
 62
7
100
AcDbSpline
 70
8
 71
3
 72
8
 73
4
 74
0
 40
0
 40
0
 40
0
 40
0
 40
1
 40
1
 40
1
 40
1
 10
35.885902
 20
242.113667
 30
0.0
 10
35.830260
 20
242.058025
 30
0.0
 10
35.754792
 20
242.026765
 30
0.0
 10
35.676102
 20
242.026765
 30
0.0
  0
LWPOLYLINE
  5
17a
100
AcDbEntity
  8
Top
 62
7
100
AcDbPolyline
 90
2
 70
0
 10
35.972804
 20
255.576162
 30
0.0
 10
35.972804
 20
242.323467
 30
0.0
  0
SPLINE
  5
17b
100
AcDbEntity
  8
Top
 62
7
100
AcDbSpline
 70
8
 71
3
 72
8
 73
4
 74
0
 40
0
 40
0
 40
0
 40
0
 40
1
 40
1
 40
1
 40
1
 10
22.423407
 20
242.026765
 30
0.0
 10
22.344717
 20
242.026765
 30
0.0
 10
22.269249
 20
242.058025
 30
0.0
 10
22.213607
 20
242.113667
 30
0.0
  0
SPLINE
  5
17c
100
AcDbEntity
  8
Top
 62
7
100
AcDbSpline
 70
8
 71
3
 72
8
 73
4
 74
0
 40
0
 40
0
 40
0
 40
0
 40
1
 40
1
 40
1
 40
1
 10
22.213607
 20
242.113667
 30
0.0
 10
22.157965
 20
242.169309
 30
0.0
 10
22.126705
 20
242.244777
 30
0.0
 10
22.126705
 20
242.323467
 30
0.0
  0
LWPOLYLINE
  5
17d
100
AcDbEntity
  8
Top
 62
7
100
AcDbPolyline
 90
2
 70
0
 10
35.676102
 20
242.026765
 30
0.0
 10
22.423407
 20
242.026765
 30
0.0
  0
SPLINE
  5
17e
100
AcDbEntity
  8
Top
 62
7
100
AcDbSpline
 70
8
 71
3
 72
8
 73
4
 74
0
 40
0
 40
0
 40
0
 40
0
 40
1
 40
1
 40
1
 40
1
 10
22.126705
 20
255.576162
 30
0.0
 10
22.126705
 20
255.654852
 30
0.0
 10
22.157965
 20
255.730320
 30
0.0
 10
22.213607
 20
255.785962
 30
0.0
  0
SPLINE
  5
17f
100
AcDbEntity
  8
Top
 62
7
100
AcDbSpline
 70
8
 71
3
 72
8
 73
4
 74
0
 40
0
 40
0
 40
0
 40
0
 40
1
 40
1
 40
1
 40
1
 10
22.213607
 20
255.785962
 30
0.0
 10
22.269249
 20
255.841604
 30
0.0
 10
22.344717
 20
255.872864
 30
0.0
 10
22.423407
 20
255.872864
 30
0.0
  0
LWPOLYLINE
  5
180
100
AcDbEntity
  8
Top
 62
7
100
AcDbPolyline
 90
2
 70
0
 10
22.126705
 20
242.323467
 30
0.0
 10
22.126705
 20
255.576162
 30
0.0
  0
LWPOLYLINE
  5
181
100
AcDbEntity
  8
Top
 62
7
100
AcDbPolyline
 90
1
 70
1
 10
22.423407
 20
255.872864
 30
0.0
  0
SPLINE
  5
182
100
AcDbEntity
  8
Top
 62
7
100
AcDbSpline
 70
8
 71
3
 72
8
 73
4
 74
0
 40
0
 40
0
 40
0
 40
0
 40
1
 40
1
 40
1
 40
1
 10
54.676102
 20
255.872864
 30
0.0
 10
54.754792
 20
255.872864
 30
0.0
 10
54.830260
 20
255.841604
 30
0.0
 10
54.885902
 20
255.785962
 30
0.0
  0
SPLINE
  5
183
100
AcDbEntity
  8
Top
 62
7
100
AcDbSpline
 70
8
 71
3
 72
8
 73
4
 74
0
 40
0
 40
0
 40
0
 40
0
 40
1
 40
1
 40
1
 40
1
 10
54.885902
 20
255.785962
 30
0.0
 10
54.941544
 20
255.730320
 30
0.0
 10
54.972804
 20
255.654852
 30
0.0
 10
54.972804
 20
255.576162
 30
0.0
  0
LWPOLYLINE
  5
184
100
AcDbEntity
  8
Top
 62
7
100
AcDbPolyline
 90
2
 70
0
 10
41.423407
 20
255.872864
 30
0.0
 10
54.676102
 20
255.872864
 30
0.0
  0
SPLINE
  5
185
100
AcDbEntity
  8
Top
 62
7
100
AcDbSpline
 70
8
 71
3
 72
8
 73
4
 74
0
 40
0
 40
0
 40
0
 40
0
 40
1
 40
1
 40
1
 40
1
 10
54.972804
 20
242.323467
 30
0.0
 10
54.972804
 20
242.244777
 30
0.0
 10
54.941544
 20
242.169309
 30
0.0
 10
54.885902
 20
242.113667
 30
0.0
  0
SPLINE
  5
186
100
AcDbEntity
  8
Top
 62
7
100
AcDbSpline
 70
8
 71
3
 72
8
 73
4
 74
0
 40
0
 40
0
 40
0
 40
0
 40
1
 40
1
 40
1
 40
1
 10
54.885902
 20
242.113667
 30
0.0
 10
54.830260
 20
242.058025
 30
0.0
 10
54.754792
 20
242.026765
 30
0.0
 10
54.676102
 20
242.026765
 30
0.0
  0
LWPOLYLINE
  5
187
100
AcDbEntity
  8
Top
 62
7
100
AcDbPolyline
 90
2
 70
0
 10
54.972804
 20
255.576162
 30
0.0
 10
54.972804
 20
242.323467
 30
0.0
  0
SPLINE
  5
188
100
AcDbEntity
  8
Top
 62
7
100
AcDbSpline
 70
8
 71
3
 72
8
 73
4
 74
0
 40
0
 40
0
 40
0
 40
0
 40
1
 40
1
 40
1
 40
1
 10
41.423407
 20
242.026765
 30
0.0
 10
41.344717
 20
242.026765
 30
0.0
 10
41.269249
 20
242.058025
 30
0.0
 10
41.213607
 20
242.113667
 30
0.0
  0
SPLINE
  5
189
100
AcDbEntity
  8
Top
 62
7
100
AcDbSpline
 70
8
 71
3
 72
8
 73
4
 74
0
 40
0
 40
0
 40
0
 40
0
 40
1
 40
1
 40
1
 40
1
 10
41.213607
 20
242.113667
 30
0.0
 10
41.157965
 20
242.169309
 30
0.0
 10
41.126705
 20
242.244777
 30
0.0
 10
41.126705
 20
242.323467
 30
0.0
  0
LWPOLYLINE
  5
18a
100
AcDbEntity
  8
Top
 62
7
100
AcDbPolyline
 90
2
 70
0
 10
54.676102
 20
242.026765
 30
0.0
 10
41.423407
 20
242.026765
 30
0.0
  0
SPLINE
  5
18b
100
AcDbEntity
  8
Top
 62
7
100
AcDbSpline
 70
8
 71
3
 72
8
 73
4
 74
0
 40
0
 40
0
 40
0
 40
0
 40
1
 40
1
 40
1
 40
1
 10
41.126705
 20
255.576162
 30
0.0
 10
41.126705
 20
255.654852
 30
0.0
 10
41.157965
 20
255.730320
 30
0.0
 10
41.213607
 20
255.785962
 30
0.0
  0
SPLINE
  5
18c
100
AcDbEntity
  8
Top
 62
7
100
AcDbSpline
 70
8
 71
3
 72
8
 73
4
 74
0
 40
0
 40
0
 40
0
 40
0
 40
1
 40
1
 40
1
 40
1
 10
41.213607
 20
255.785962
 30
0.0
 10
41.269249
 20
255.841604
 30
0.0
 10
41.344717
 20
255.872864
 30
0.0
 10
41.423407
 20
255.872864
 30
0.0
  0
LWPOLYLINE
  5
18d
100
AcDbEntity
  8
Top
 62
7
100
AcDbPolyline
 90
2
 70
0
 10
41.126705
 20
242.323467
 30
0.0
 10
41.126705
 20
255.576162
 30
0.0
  0
LWPOLYLINE
  5
18e
100
AcDbEntity
  8
Top
 62
7
100
AcDbPolyline
 90
1
 70
1
 10
41.423407
 20
255.872864
 30
0.0
  0
SPLINE
  5
18f
100
AcDbEntity
  8
Top
 62
7
100
AcDbSpline
 70
8
 71
3
 72
8
 73
4
 74
0
 40
0
 40
0
 40
0
 40
0
 40
1
 40
1
 40
1
 40
1
 10
16.676110
 20
274.872881
 30
0.0
 10
16.754800
 20
274.872881
 30
0.0
 10
16.830268
 20
274.841621
 30
0.0
 10
16.885910
 20
274.785979
 30
0.0
  0
SPLINE
  5
190
100
AcDbEntity
  8
Top
 62
7
100
AcDbSpline
 70
8
 71
3
 72
8
 73
4
 74
0
 40
0
 40
0
 40
0
 40
0
 40
1
 40
1
 40
1
 40
1
 10
16.885910
 20
274.785979
 30
0.0
 10
16.941553
 20
274.730337
 30
0.0
 10
16.972812
 20
274.654869
 30
0.0
 10
16.972812
 20
274.576179
 30
0.0
  0
LWPOLYLINE
  5
191
100
AcDbEntity
  8
Top
 62
7
100
AcDbPolyline
 90
2
 70
0
 10
3.423415
 20
274.872881
 30
0.0
 10
16.676110
 20
274.872881
 30
0.0
  0
SPLINE
  5
192
100
AcDbEntity
  8
Top
 62
7
100
AcDbSpline
 70
8
 71
3
 72
8
 73
4
 74
0
 40
0
 40
0
 40
0
 40
0
 40
1
 40
1
 40
1
 40
1
 10
16.972812
 20
261.323484
 30
0.0
 10
16.972812
 20
261.244794
 30
0.0
 10
16.941553
 20
261.169326
 30
0.0
 10
16.885910
 20
261.113684
 30
0.0
  0
SPLINE
  5
193
100
AcDbEntity
  8
Top
 62
7
100
AcDbSpline
 70
8
 71
3
 72
8
 73
4
 74
0
 40
0
 40
0
 40
0
 40
0
 40
1
 40
1
 40
1
 40
1
 10
16.885910
 20
261.113684
 30
0.0
 10
16.830268
 20
261.058042
 30
0.0
 10
16.754800
 20
261.026782
 30
0.0
 10
16.676110
 20
261.026782
 30
0.0
  0
LWPOLYLINE
  5
194
100
AcDbEntity
  8
Top
 62
7
100
AcDbPolyline
 90
2
 70
0
 10
16.972812
 20
274.576179
 30
0.0
 10
16.972812
 20
261.323484
 30
0.0
  0
SPLINE
  5
195
100
AcDbEntity
  8
Top
 62
7
100
AcDbSpline
 70
8
 71
3
 72
8
 73
4
 74
0
 40
0
 40
0
 40
0
 40
0
 40
1
 40
1
 40
1
 40
1
 10
3.423415
 20
261.026782
 30
0.0
 10
3.344725
 20
261.026782
 30
0.0
 10
3.269258
 20
261.058042
 30
0.0
 10
3.213615
 20
261.113684
 30
0.0
  0
SPLINE
  5
196
100
AcDbEntity
  8
Top
 62
7
100
AcDbSpline
 70
8
 71
3
 72
8
 73
4
 74
0
 40
0
 40
0
 40
0
 40
0
 40
1
 40
1
 40
1
 40
1
 10
3.213615
 20
261.113684
 30
0.0
 10
3.157973
 20
261.169326
 30
0.0
 10
3.126713
 20
261.244794
 30
0.0
 10
3.126713
 20
261.323484
 30
0.0
  0
LWPOLYLINE
  5
197
100
AcDbEntity
  8
Top
 62
7
100
AcDbPolyline
 90
2
 70
0
 10
16.676110
 20
261.026782
 30
0.0
 10
3.423415
 20
261.026782
 30
0.0
  0
SPLINE
  5
198
100
AcDbEntity
  8
Top
 62
7
100
AcDbSpline
 70
8
 71
3
 72
8
 73
4
 74
0
 40
0
 40
0
 40
0
 40
0
 40
1
 40
1
 40
1
 40
1
 10
3.126713
 20
274.576179
 30
0.0
 10
3.126713
 20
274.654869
 30
0.0
 10
3.157973
 20
274.730337
 30
0.0
 10
3.213615
 20
274.785979
 30
0.0
  0
SPLINE
  5
199
100
AcDbEntity
  8
Top
 62
7
100
AcDbSpline
 70
8
 71
3
 72
8
 73
4
 74
0
 40
0
 40
0
 40
0
 40
0
 40
1
 40
1
 40
1
 40
1
 10
3.213615
 20
274.785979
 30
0.0
 10
3.269258
 20
274.841621
 30
0.0
 10
3.344725
 20
274.872881
 30
0.0
 10
3.423415
 20
274.872881
 30
0.0
  0
LWPOLYLINE
  5
19a
100
AcDbEntity
  8
Top
 62
7
100
AcDbPolyline
 90
2
 70
0
 10
3.126713
 20
261.323484
 30
0.0
 10
3.126713
 20
274.576179
 30
0.0
  0
LWPOLYLINE
  5
19b
100
AcDbEntity
  8
Top
 62
7
100
AcDbPolyline
 90
1
 70
1
 10
3.423415
 20
274.872881
 30
0.0
  0
SPLINE
  5
19c
100
AcDbEntity
  8
Top
 62
7
100
AcDbSpline
 70
8
 71
3
 72
8
 73
4
 74
0
 40
0
 40
0
 40
0
 40
0
 40
1
 40
1
 40
1
 40
1
 10
35.676102
 20
274.872881
 30
0.0
 10
35.754792
 20
274.872881
 30
0.0
 10
35.830260
 20
274.841621
 30
0.0
 10
35.885902
 20
274.785979
 30
0.0
  0
SPLINE
  5
19d
100
AcDbEntity
  8
Top
 62
7
100
AcDbSpline
 70
8
 71
3
 72
8
 73
4
 74
0
 40
0
 40
0
 40
0
 40
0
 40
1
 40
1
 40
1
 40
1
 10
35.885902
 20
274.785979
 30
0.0
 10
35.941544
 20
274.730337
 30
0.0
 10
35.972804
 20
274.654869
 30
0.0
 10
35.972804
 20
274.576179
 30
0.0
  0
LWPOLYLINE
  5
19e
100
AcDbEntity
  8
Top
 62
7
100
AcDbPolyline
 90
2
 70
0
 10
22.423407
 20
274.872881
 30
0.0
 10
35.676102
 20
274.872881
 30
0.0
  0
SPLINE
  5
19f
100
AcDbEntity
  8
Top
 62
7
100
AcDbSpline
 70
8
 71
3
 72
8
 73
4
 74
0
 40
0
 40
0
 40
0
 40
0
 40
1
 40
1
 40
1
 40
1
 10
35.972804
 20
261.323484
 30
0.0
 10
35.972804
 20
261.244794
 30
0.0
 10
35.941544
 20
261.169326
 30
0.0
 10
35.885902
 20
261.113684
 30
0.0
  0
SPLINE
  5
1a0
100
AcDbEntity
  8
Top
 62
7
100
AcDbSpline
 70
8
 71
3
 72
8
 73
4
 74
0
 40
0
 40
0
 40
0
 40
0
 40
1
 40
1
 40
1
 40
1
 10
35.885902
 20
261.113684
 30
0.0
 10
35.830260
 20
261.058042
 30
0.0
 10
35.754792
 20
261.026782
 30
0.0
 10
35.676102
 20
261.026782
 30
0.0
  0
LWPOLYLINE
  5
1a1
100
AcDbEntity
  8
Top
 62
7
100
AcDbPolyline
 90
2
 70
0
 10
35.972804
 20
274.576179
 30
0.0
 10
35.972804
 20
261.323484
 30
0.0
  0
SPLINE
  5
1a2
100
AcDbEntity
  8
Top
 62
7
100
AcDbSpline
 70
8
 71
3
 72
8
 73
4
 74
0
 40
0
 40
0
 40
0
 40
0
 40
1
 40
1
 40
1
 40
1
 10
22.423407
 20
261.026782
 30
0.0
 10
22.344717
 20
261.026782
 30
0.0
 10
22.269249
 20
261.058042
 30
0.0
 10
22.213607
 20
261.113684
 30
0.0
  0
SPLINE
  5
1a3
100
AcDbEntity
  8
Top
 62
7
100
AcDbSpline
 70
8
 71
3
 72
8
 73
4
 74
0
 40
0
 40
0
 40
0
 40
0
 40
1
 40
1
 40
1
 40
1
 10
22.213607
 20
261.113684
 30
0.0
 10
22.157965
 20
261.169326
 30
0.0
 10
22.126705
 20
261.244794
 30
0.0
 10
22.126705
 20
261.323484
 30
0.0
  0
LWPOLYLINE
  5
1a4
100
AcDbEntity
  8
Top
 62
7
100
AcDbPolyline
 90
2
 70
0
 10
35.676102
 20
261.026782
 30
0.0
 10
22.423407
 20
261.026782
 30
0.0
  0
SPLINE
  5
1a5
100
AcDbEntity
  8
Top
 62
7
100
AcDbSpline
 70
8
 71
3
 72
8
 73
4
 74
0
 40
0
 40
0
 40
0
 40
0
 40
1
 40
1
 40
1
 40
1
 10
22.126705
 20
274.576179
 30
0.0
 10
22.126705
 20
274.654869
 30
0.0
 10
22.157965
 20
274.730337
 30
0.0
 10
22.213607
 20
274.785979
 30
0.0
  0
SPLINE
  5
1a6
100
AcDbEntity
  8
Top
 62
7
100
AcDbSpline
 70
8
 71
3
 72
8
 73
4
 74
0
 40
0
 40
0
 40
0
 40
0
 40
1
 40
1
 40
1
 40
1
 10
22.213607
 20
274.785979
 30
0.0
 10
22.269249
 20
274.841621
 30
0.0
 10
22.344717
 20
274.872881
 30
0.0
 10
22.423407
 20
274.872881
 30
0.0
  0
LWPOLYLINE
  5
1a7
100
AcDbEntity
  8
Top
 62
7
100
AcDbPolyline
 90
2
 70
0
 10
22.126705
 20
261.323484
 30
0.0
 10
22.126705
 20
274.576179
 30
0.0
  0
LWPOLYLINE
  5
1a8
100
AcDbEntity
  8
Top
 62
7
100
AcDbPolyline
 90
1
 70
1
 10
22.423407
 20
274.872881
 30
0.0
  0
SPLINE
  5
1a9
100
AcDbEntity
  8
Top
 62
7
100
AcDbSpline
 70
8
 71
3
 72
8
 73
4
 74
0
 40
0
 40
0
 40
0
 40
0
 40
1
 40
1
 40
1
 40
1
 10
54.676102
 20
274.872881
 30
0.0
 10
54.754792
 20
274.872881
 30
0.0
 10
54.830260
 20
274.841621
 30
0.0
 10
54.885902
 20
274.785979
 30
0.0
  0
SPLINE
  5
1aa
100
AcDbEntity
  8
Top
 62
7
100
AcDbSpline
 70
8
 71
3
 72
8
 73
4
 74
0
 40
0
 40
0
 40
0
 40
0
 40
1
 40
1
 40
1
 40
1
 10
54.885902
 20
274.785979
 30
0.0
 10
54.941544
 20
274.730337
 30
0.0
 10
54.972804
 20
274.654869
 30
0.0
 10
54.972804
 20
274.576179
 30
0.0
  0
LWPOLYLINE
  5
1ab
100
AcDbEntity
  8
Top
 62
7
100
AcDbPolyline
 90
2
 70
0
 10
41.423407
 20
274.872881
 30
0.0
 10
54.676102
 20
274.872881
 30
0.0
  0
SPLINE
  5
1ac
100
AcDbEntity
  8
Top
 62
7
100
AcDbSpline
 70
8
 71
3
 72
8
 73
4
 74
0
 40
0
 40
0
 40
0
 40
0
 40
1
 40
1
 40
1
 40
1
 10
54.972804
 20
261.323484
 30
0.0
 10
54.972804
 20
261.244794
 30
0.0
 10
54.941544
 20
261.169326
 30
0.0
 10
54.885902
 20
261.113684
 30
0.0
  0
SPLINE
  5
1ad
100
AcDbEntity
  8
Top
 62
7
100
AcDbSpline
 70
8
 71
3
 72
8
 73
4
 74
0
 40
0
 40
0
 40
0
 40
0
 40
1
 40
1
 40
1
 40
1
 10
54.885902
 20
261.113684
 30
0.0
 10
54.830260
 20
261.058042
 30
0.0
 10
54.754792
 20
261.026782
 30
0.0
 10
54.676102
 20
261.026782
 30
0.0
  0
LWPOLYLINE
  5
1ae
100
AcDbEntity
  8
Top
 62
7
100
AcDbPolyline
 90
2
 70
0
 10
54.972804
 20
274.576179
 30
0.0
 10
54.972804
 20
261.323484
 30
0.0
  0
SPLINE
  5
1af
100
AcDbEntity
  8
Top
 62
7
100
AcDbSpline
 70
8
 71
3
 72
8
 73
4
 74
0
 40
0
 40
0
 40
0
 40
0
 40
1
 40
1
 40
1
 40
1
 10
41.423407
 20
261.026782
 30
0.0
 10
41.344717
 20
261.026782
 30
0.0
 10
41.269249
 20
261.058042
 30
0.0
 10
41.213607
 20
261.113684
 30
0.0
  0
SPLINE
  5
1b0
100
AcDbEntity
  8
Top
 62
7
100
AcDbSpline
 70
8
 71
3
 72
8
 73
4
 74
0
 40
0
 40
0
 40
0
 40
0
 40
1
 40
1
 40
1
 40
1
 10
41.213607
 20
261.113684
 30
0.0
 10
41.157965
 20
261.169326
 30
0.0
 10
41.126705
 20
261.244794
 30
0.0
 10
41.126705
 20
261.323484
 30
0.0
  0
LWPOLYLINE
  5
1b1
100
AcDbEntity
  8
Top
 62
7
100
AcDbPolyline
 90
2
 70
0
 10
54.676102
 20
261.026782
 30
0.0
 10
41.423407
 20
261.026782
 30
0.0
  0
SPLINE
  5
1b2
100
AcDbEntity
  8
Top
 62
7
100
AcDbSpline
 70
8
 71
3
 72
8
 73
4
 74
0
 40
0
 40
0
 40
0
 40
0
 40
1
 40
1
 40
1
 40
1
 10
41.126705
 20
274.576179
 30
0.0
 10
41.126705
 20
274.654869
 30
0.0
 10
41.157965
 20
274.730337
 30
0.0
 10
41.213607
 20
274.785979
 30
0.0
  0
SPLINE
  5
1b3
100
AcDbEntity
  8
Top
 62
7
100
AcDbSpline
 70
8
 71
3
 72
8
 73
4
 74
0
 40
0
 40
0
 40
0
 40
0
 40
1
 40
1
 40
1
 40
1
 10
41.213607
 20
274.785979
 30
0.0
 10
41.269249
 20
274.841621
 30
0.0
 10
41.344717
 20
274.872881
 30
0.0
 10
41.423407
 20
274.872881
 30
0.0
  0
LWPOLYLINE
  5
1b4
100
AcDbEntity
  8
Top
 62
7
100
AcDbPolyline
 90
2
 70
0
 10
41.126705
 20
261.323484
 30
0.0
 10
41.126705
 20
274.576179
 30
0.0
  0
LWPOLYLINE
  5
1b5
100
AcDbEntity
  8
Top
 62
7
100
AcDbPolyline
 90
1
 70
1
 10
41.423407
 20
274.872881
 30
0.0
  0
SPLINE
  5
1b6
100
AcDbEntity
  8
Top
 62
7
100
AcDbSpline
 70
8
 71
3
 72
8
 73
4
 74
0
 40
0
 40
0
 40
0
 40
0
 40
1
 40
1
 40
1
 40
1
 10
16.676110
 20
293.872848
 30
0.0
 10
16.754800
 20
293.872848
 30
0.0
 10
16.830268
 20
293.841588
 30
0.0
 10
16.885910
 20
293.785946
 30
0.0
  0
SPLINE
  5
1b7
100
AcDbEntity
  8
Top
 62
7
100
AcDbSpline
 70
8
 71
3
 72
8
 73
4
 74
0
 40
0
 40
0
 40
0
 40
0
 40
1
 40
1
 40
1
 40
1
 10
16.885910
 20
293.785946
 30
0.0
 10
16.941553
 20
293.730303
 30
0.0
 10
16.972812
 20
293.654836
 30
0.0
 10
16.972812
 20
293.576146
 30
0.0
  0
LWPOLYLINE
  5
1b8
100
AcDbEntity
  8
Top
 62
7
100
AcDbPolyline
 90
2
 70
0
 10
3.423415
 20
293.872848
 30
0.0
 10
16.676110
 20
293.872848
 30
0.0
  0
SPLINE
  5
1b9
100
AcDbEntity
  8
Top
 62
7
100
AcDbSpline
 70
8
 71
3
 72
8
 73
4
 74
0
 40
0
 40
0
 40
0
 40
0
 40
1
 40
1
 40
1
 40
1
 10
16.972812
 20
280.323451
 30
0.0
 10
16.972812
 20
280.244761
 30
0.0
 10
16.941553
 20
280.169293
 30
0.0
 10
16.885910
 20
280.113651
 30
0.0
  0
SPLINE
  5
1ba
100
AcDbEntity
  8
Top
 62
7
100
AcDbSpline
 70
8
 71
3
 72
8
 73
4
 74
0
 40
0
 40
0
 40
0
 40
0
 40
1
 40
1
 40
1
 40
1
 10
16.885910
 20
280.113651
 30
0.0
 10
16.830268
 20
280.058008
 30
0.0
 10
16.754800
 20
280.026749
 30
0.0
 10
16.676110
 20
280.026749
 30
0.0
  0
LWPOLYLINE
  5
1bb
100
AcDbEntity
  8
Top
 62
7
100
AcDbPolyline
 90
2
 70
0
 10
16.972812
 20
293.576146
 30
0.0
 10
16.972812
 20
280.323451
 30
0.0
  0
SPLINE
  5
1bc
100
AcDbEntity
  8
Top
 62
7
100
AcDbSpline
 70
8
 71
3
 72
8
 73
4
 74
0
 40
0
 40
0
 40
0
 40
0
 40
1
 40
1
 40
1
 40
1
 10
3.423415
 20
280.026749
 30
0.0
 10
3.344725
 20
280.026749
 30
0.0
 10
3.269258
 20
280.058008
 30
0.0
 10
3.213615
 20
280.113651
 30
0.0
  0
SPLINE
  5
1bd
100
AcDbEntity
  8
Top
 62
7
100
AcDbSpline
 70
8
 71
3
 72
8
 73
4
 74
0
 40
0
 40
0
 40
0
 40
0
 40
1
 40
1
 40
1
 40
1
 10
3.213615
 20
280.113651
 30
0.0
 10
3.157973
 20
280.169293
 30
0.0
 10
3.126713
 20
280.244761
 30
0.0
 10
3.126713
 20
280.323451
 30
0.0
  0
LWPOLYLINE
  5
1be
100
AcDbEntity
  8
Top
 62
7
100
AcDbPolyline
 90
2
 70
0
 10
16.676110
 20
280.026749
 30
0.0
 10
3.423415
 20
280.026749
 30
0.0
  0
SPLINE
  5
1bf
100
AcDbEntity
  8
Top
 62
7
100
AcDbSpline
 70
8
 71
3
 72
8
 73
4
 74
0
 40
0
 40
0
 40
0
 40
0
 40
1
 40
1
 40
1
 40
1
 10
3.126713
 20
293.576146
 30
0.0
 10
3.126713
 20
293.654836
 30
0.0
 10
3.157973
 20
293.730303
 30
0.0
 10
3.213615
 20
293.785946
 30
0.0
  0
SPLINE
  5
1c0
100
AcDbEntity
  8
Top
 62
7
100
AcDbSpline
 70
8
 71
3
 72
8
 73
4
 74
0
 40
0
 40
0
 40
0
 40
0
 40
1
 40
1
 40
1
 40
1
 10
3.213615
 20
293.785946
 30
0.0
 10
3.269258
 20
293.841588
 30
0.0
 10
3.344725
 20
293.872848
 30
0.0
 10
3.423415
 20
293.872848
 30
0.0
  0
LWPOLYLINE
  5
1c1
100
AcDbEntity
  8
Top
 62
7
100
AcDbPolyline
 90
2
 70
0
 10
3.126713
 20
280.323451
 30
0.0
 10
3.126713
 20
293.576146
 30
0.0
  0
LWPOLYLINE
  5
1c2
100
AcDbEntity
  8
Top
 62
7
100
AcDbPolyline
 90
1
 70
1
 10
3.423415
 20
293.872848
 30
0.0
  0
SPLINE
  5
1c3
100
AcDbEntity
  8
Top
 62
7
100
AcDbSpline
 70
8
 71
3
 72
8
 73
4
 74
0
 40
0
 40
0
 40
0
 40
0
 40
1
 40
1
 40
1
 40
1
 10
35.676102
 20
293.872848
 30
0.0
 10
35.754792
 20
293.872848
 30
0.0
 10
35.830260
 20
293.841588
 30
0.0
 10
35.885902
 20
293.785946
 30
0.0
  0
SPLINE
  5
1c4
100
AcDbEntity
  8
Top
 62
7
100
AcDbSpline
 70
8
 71
3
 72
8
 73
4
 74
0
 40
0
 40
0
 40
0
 40
0
 40
1
 40
1
 40
1
 40
1
 10
35.885902
 20
293.785946
 30
0.0
 10
35.941544
 20
293.730303
 30
0.0
 10
35.972804
 20
293.654836
 30
0.0
 10
35.972804
 20
293.576146
 30
0.0
  0
LWPOLYLINE
  5
1c5
100
AcDbEntity
  8
Top
 62
7
100
AcDbPolyline
 90
2
 70
0
 10
22.423407
 20
293.872848
 30
0.0
 10
35.676102
 20
293.872848
 30
0.0
  0
SPLINE
  5
1c6
100
AcDbEntity
  8
Top
 62
7
100
AcDbSpline
 70
8
 71
3
 72
8
 73
4
 74
0
 40
0
 40
0
 40
0
 40
0
 40
1
 40
1
 40
1
 40
1
 10
35.972804
 20
280.323451
 30
0.0
 10
35.972804
 20
280.244761
 30
0.0
 10
35.941544
 20
280.169293
 30
0.0
 10
35.885902
 20
280.113651
 30
0.0
  0
SPLINE
  5
1c7
100
AcDbEntity
  8
Top
 62
7
100
AcDbSpline
 70
8
 71
3
 72
8
 73
4
 74
0
 40
0
 40
0
 40
0
 40
0
 40
1
 40
1
 40
1
 40
1
 10
35.885902
 20
280.113651
 30
0.0
 10
35.830260
 20
280.058008
 30
0.0
 10
35.754792
 20
280.026749
 30
0.0
 10
35.676102
 20
280.026749
 30
0.0
  0
LWPOLYLINE
  5
1c8
100
AcDbEntity
  8
Top
 62
7
100
AcDbPolyline
 90
2
 70
0
 10
35.972804
 20
293.576146
 30
0.0
 10
35.972804
 20
280.323451
 30
0.0
  0
SPLINE
  5
1c9
100
AcDbEntity
  8
Top
 62
7
100
AcDbSpline
 70
8
 71
3
 72
8
 73
4
 74
0
 40
0
 40
0
 40
0
 40
0
 40
1
 40
1
 40
1
 40
1
 10
22.423407
 20
280.026749
 30
0.0
 10
22.344717
 20
280.026749
 30
0.0
 10
22.269249
 20
280.058008
 30
0.0
 10
22.213607
 20
280.113651
 30
0.0
  0
SPLINE
  5
1ca
100
AcDbEntity
  8
Top
 62
7
100
AcDbSpline
 70
8
 71
3
 72
8
 73
4
 74
0
 40
0
 40
0
 40
0
 40
0
 40
1
 40
1
 40
1
 40
1
 10
22.213607
 20
280.113651
 30
0.0
 10
22.157965
 20
280.169293
 30
0.0
 10
22.126705
 20
280.244761
 30
0.0
 10
22.126705
 20
280.323451
 30
0.0
  0
LWPOLYLINE
  5
1cb
100
AcDbEntity
  8
Top
 62
7
100
AcDbPolyline
 90
2
 70
0
 10
35.676102
 20
280.026749
 30
0.0
 10
22.423407
 20
280.026749
 30
0.0
  0
SPLINE
  5
1cc
100
AcDbEntity
  8
Top
 62
7
100
AcDbSpline
 70
8
 71
3
 72
8
 73
4
 74
0
 40
0
 40
0
 40
0
 40
0
 40
1
 40
1
 40
1
 40
1
 10
22.126705
 20
293.576146
 30
0.0
 10
22.126705
 20
293.654836
 30
0.0
 10
22.157965
 20
293.730303
 30
0.0
 10
22.213607
 20
293.785946
 30
0.0
  0
SPLINE
  5
1cd
100
AcDbEntity
  8
Top
 62
7
100
AcDbSpline
 70
8
 71
3
 72
8
 73
4
 74
0
 40
0
 40
0
 40
0
 40
0
 40
1
 40
1
 40
1
 40
1
 10
22.213607
 20
293.785946
 30
0.0
 10
22.269249
 20
293.841588
 30
0.0
 10
22.344717
 20
293.872848
 30
0.0
 10
22.423407
 20
293.872848
 30
0.0
  0
LWPOLYLINE
  5
1ce
100
AcDbEntity
  8
Top
 62
7
100
AcDbPolyline
 90
2
 70
0
 10
22.126705
 20
280.323451
 30
0.0
 10
22.126705
 20
293.576146
 30
0.0
  0
LWPOLYLINE
  5
1cf
100
AcDbEntity
  8
Top
 62
7
100
AcDbPolyline
 90
1
 70
1
 10
22.423407
 20
293.872848
 30
0.0
  0
SPLINE
  5
1d0
100
AcDbEntity
  8
Top
 62
7
100
AcDbSpline
 70
8
 71
3
 72
8
 73
4
 74
0
 40
0
 40
0
 40
0
 40
0
 40
1
 40
1
 40
1
 40
1
 10
54.676102
 20
293.872848
 30
0.0
 10
54.754792
 20
293.872848
 30
0.0
 10
54.830260
 20
293.841588
 30
0.0
 10
54.885902
 20
293.785946
 30
0.0
  0
SPLINE
  5
1d1
100
AcDbEntity
  8
Top
 62
7
100
AcDbSpline
 70
8
 71
3
 72
8
 73
4
 74
0
 40
0
 40
0
 40
0
 40
0
 40
1
 40
1
 40
1
 40
1
 10
54.885902
 20
293.785946
 30
0.0
 10
54.941544
 20
293.730303
 30
0.0
 10
54.972804
 20
293.654836
 30
0.0
 10
54.972804
 20
293.576146
 30
0.0
  0
LWPOLYLINE
  5
1d2
100
AcDbEntity
  8
Top
 62
7
100
AcDbPolyline
 90
2
 70
0
 10
41.423407
 20
293.872848
 30
0.0
 10
54.676102
 20
293.872848
 30
0.0
  0
SPLINE
  5
1d3
100
AcDbEntity
  8
Top
 62
7
100
AcDbSpline
 70
8
 71
3
 72
8
 73
4
 74
0
 40
0
 40
0
 40
0
 40
0
 40
1
 40
1
 40
1
 40
1
 10
54.972804
 20
280.323451
 30
0.0
 10
54.972804
 20
280.244761
 30
0.0
 10
54.941544
 20
280.169293
 30
0.0
 10
54.885902
 20
280.113651
 30
0.0
  0
SPLINE
  5
1d4
100
AcDbEntity
  8
Top
 62
7
100
AcDbSpline
 70
8
 71
3
 72
8
 73
4
 74
0
 40
0
 40
0
 40
0
 40
0
 40
1
 40
1
 40
1
 40
1
 10
54.885902
 20
280.113651
 30
0.0
 10
54.830260
 20
280.058008
 30
0.0
 10
54.754792
 20
280.026749
 30
0.0
 10
54.676102
 20
280.026749
 30
0.0
  0
LWPOLYLINE
  5
1d5
100
AcDbEntity
  8
Top
 62
7
100
AcDbPolyline
 90
2
 70
0
 10
54.972804
 20
293.576146
 30
0.0
 10
54.972804
 20
280.323451
 30
0.0
  0
SPLINE
  5
1d6
100
AcDbEntity
  8
Top
 62
7
100
AcDbSpline
 70
8
 71
3
 72
8
 73
4
 74
0
 40
0
 40
0
 40
0
 40
0
 40
1
 40
1
 40
1
 40
1
 10
41.423407
 20
280.026749
 30
0.0
 10
41.344717
 20
280.026749
 30
0.0
 10
41.269249
 20
280.058008
 30
0.0
 10
41.213607
 20
280.113651
 30
0.0
  0
SPLINE
  5
1d7
100
AcDbEntity
  8
Top
 62
7
100
AcDbSpline
 70
8
 71
3
 72
8
 73
4
 74
0
 40
0
 40
0
 40
0
 40
0
 40
1
 40
1
 40
1
 40
1
 10
41.213607
 20
280.113651
 30
0.0
 10
41.157965
 20
280.169293
 30
0.0
 10
41.126705
 20
280.244761
 30
0.0
 10
41.126705
 20
280.323451
 30
0.0
  0
LWPOLYLINE
  5
1d8
100
AcDbEntity
  8
Top
 62
7
100
AcDbPolyline
 90
2
 70
0
 10
54.676102
 20
280.026749
 30
0.0
 10
41.423407
 20
280.026749
 30
0.0
  0
SPLINE
  5
1d9
100
AcDbEntity
  8
Top
 62
7
100
AcDbSpline
 70
8
 71
3
 72
8
 73
4
 74
0
 40
0
 40
0
 40
0
 40
0
 40
1
 40
1
 40
1
 40
1
 10
41.126705
 20
293.576146
 30
0.0
 10
41.126705
 20
293.654836
 30
0.0
 10
41.157965
 20
293.730303
 30
0.0
 10
41.213607
 20
293.785946
 30
0.0
  0
SPLINE
  5
1da
100
AcDbEntity
  8
Top
 62
7
100
AcDbSpline
 70
8
 71
3
 72
8
 73
4
 74
0
 40
0
 40
0
 40
0
 40
0
 40
1
 40
1
 40
1
 40
1
 10
41.213607
 20
293.785946
 30
0.0
 10
41.269249
 20
293.841588
 30
0.0
 10
41.344717
 20
293.872848
 30
0.0
 10
41.423407
 20
293.872848
 30
0.0
  0
LWPOLYLINE
  5
1db
100
AcDbEntity
  8
Top
 62
7
100
AcDbPolyline
 90
2
 70
0
 10
41.126705
 20
280.323451
 30
0.0
 10
41.126705
 20
293.576146
 30
0.0
  0
SPLINE
  5
1dc
100
AcDbEntity
  8
Top
 62
7
100
AcDbSpline
 70
8
 71
3
 72
8
 73
4
 74
0
 40
0
 40
0
 40
0
 40
0
 40
1
 40
1
 40
1
 40
1
 10
38.580883
 20
259.546259
 30
0.0
 10
38.135975
 20
259.546259
 30
0.0
 10
37.734875
 20
259.278253
 30
0.0
 10
37.564616
 20
258.867211
 30
0.0
  0
SPLINE
  5
1dd
100
AcDbEntity
  8
Top
 62
7
100
AcDbSpline
 70
8
 71
3
 72
8
 73
4
 74
0
 40
0
 40
0
 40
0
 40
0
 40
1
 40
1
 40
1
 40
1
 10
37.564616
 20
258.867211
 30
0.0
 10
37.394356
 20
258.456169
 30
0.0
 10
37.488468
 20
257.983039
 30
0.0
 10
37.803066
 20
257.668442
 30
0.0
  0
SPLINE
  5
1de
100
AcDbEntity
  8
Top
 62
7
100
AcDbSpline
 70
8
 71
3
 72
8
 73
4
 74
0
 40
0
 40
0
 40
0
 40
0
 40
1
 40
1
 40
1
 40
1
 10
37.803066
 20
257.668442
 30
0.0
 10
38.117663
 20
257.353844
 30
0.0
 10
38.590793
 20
257.259732
 30
0.0
 10
39.001835
 20
257.429992
 30
0.0
  0
SPLINE
  5
1df
100
AcDbEntity
  8
Top
 62
7
100
AcDbSpline
 70
8
 71
3
 72
8
 73
4
 74
0
 40
0
 40
0
 40
0
 40
0
 40
1
 40
1
 40
1
 40
1
 10
39.001835
 20
257.429992
 30
0.0
 10
39.412877
 20
257.600251
 30
0.0
 10
39.680883
 20
258.001351
 30
0.0
 10
39.680883
 20
258.446259
 30
0.0
  0
SPLINE
  5
1e0
100
AcDbEntity
  8
Top
 62
7
100
AcDbSpline
 70
8
 71
3
 72
8
 73
4
 74
0
 40
0
 40
0
 40
0
 40
0
 40
1
 40
1
 40
1
 40
1
 10
39.680883
 20
258.446259
 30
0.0
 10
39.680883
 20
258.737997
 30
0.0
 10
39.564990
 20
259.017786
 30
0.0
 10
39.358700
 20
259.224076
 30
0.0
  0
SPLINE
  5
1e1
100
AcDbEntity
  8
Top
 62
7
100
AcDbSpline
 70
8
 71
3
 72
8
 73
4
 74
0
 40
0
 40
0
 40
0
 40
0
 40
1
 40
1
 40
1
 40
1
 10
39.358700
 20
259.224076
 30
0.0
 10
39.152410
 20
259.430366
 30
0.0
 10
38.872621
 20
259.546259
 30
0.0
 10
38.580883
 20
259.546259
 30
0.0
  0
LWPOLYLINE
  5
1e2
100
AcDbEntity
  8
Top
 62
7
100
AcDbPolyline
 90
1
 70
1
 10
41.423407
 20
293.872848
 30
0.0
  0
SPLINE
  5
1e3
100
AcDbEntity
  8
Top
 62
7
100
AcDbSpline
 70
8
 71
3
 72
8
 73
4
 74
0
 40
0
 40
0
 40
0
 40
0
 40
1
 40
1
 40
1
 40
1
 10
19.530146
 20
278.596431
 30
0.0
 10
19.085238
 20
278.596431
 30
0.0
 10
18.684138
 20
278.328425
 30
0.0
 10
18.513879
 20
277.917383
 30
0.0
  0
SPLINE
  5
1e4
100
AcDbEntity
  8
Top
 62
7
100
AcDbSpline
 70
8
 71
3
 72
8
 73
4
 74
0
 40
0
 40
0
 40
0
 40
0
 40
1
 40
1
 40
1
 40
1
 10
18.513879
 20
277.917383
 30
0.0
 10
18.343619
 20
277.506341
 30
0.0
 10
18.437731
 20
277.033211
 30
0.0
 10
18.752329
 20
276.718614
 30
0.0
  0
SPLINE
  5
1e5
100
AcDbEntity
  8
Top
 62
7
100
AcDbSpline
 70
8
 71
3
 72
8
 73
4
 74
0
 40
0
 40
0
 40
0
 40
0
 40
1
 40
1
 40
1
 40
1
 10
18.752329
 20
276.718614
 30
0.0
 10
19.066926
 20
276.404016
 30
0.0
 10
19.540056
 20
276.309904
 30
0.0
 10
19.951098
 20
276.480164
 30
0.0
  0
SPLINE
  5
1e6
100
AcDbEntity
  8
Top
 62
7
100
AcDbSpline
 70
8
 71
3
 72
8
 73
4
 74
0
 40
0
 40
0
 40
0
 40
0
 40
1
 40
1
 40
1
 40
1
 10
19.951098
 20
276.480164
 30
0.0
 10
20.362140
 20
276.650423
 30
0.0
 10
20.630146
 20
277.051523
 30
0.0
 10
20.630146
 20
277.496431
 30
0.0
  0
SPLINE
  5
1e7
100
AcDbEntity
  8
Top
 62
7
100
AcDbSpline
 70
8
 71
3
 72
8
 73
4
 74
0
 40
0
 40
0
 40
0
 40
0
 40
1
 40
1
 40
1
 40
1
 10
20.630146
 20
277.496431
 30
0.0
 10
20.630146
 20
277.788169
 30
0.0
 10
20.514253
 20
278.067958
 30
0.0
 10
20.307963
 20
278.274248
 30
0.0
  0
SPLINE
  5
1e8
100
AcDbEntity
  8
Top
 62
7
100
AcDbSpline
 70
8
 71
3
 72
8
 73
4
 74
0
 40
0
 40
0
 40
0
 40
0
 40
1
 40
1
 40
1
 40
1
 10
20.307963
 20
278.274248
 30
0.0
 10
20.101673
 20
278.480538
 30
0.0
 10
19.821884
 20
278.596431
 30
0.0
 10
19.530146
 20
278.596431
 30
0.0
  0
LWPOLYLINE
  5
1e9
100
AcDbEntity
  8
Top
 62
7
100
AcDbPolyline
 90
1
 70
1
 10
38.580883
 20
259.546259
 30
0.0
  0
SPLINE
  5
1ea
100
AcDbEntity
  8
Top
 62
7
100
AcDbSpline
 70
8
 71
3
 72
8
 73
4
 74
0
 40
0
 40
0
 40
0
 40
0
 40
1
 40
1
 40
1
 40
1
 10
38.580883
 20
240.580133
 30
0.0
 10
38.135975
 20
240.580133
 30
0.0
 10
37.734875
 20
240.312127
 30
0.0
 10
37.564616
 20
239.901085
 30
0.0
  0
SPLINE
  5
1eb
100
AcDbEntity
  8
Top
 62
7
100
AcDbSpline
 70
8
 71
3
 72
8
 73
4
 74
0
 40
0
 40
0
 40
0
 40
0
 40
1
 40
1
 40
1
 40
1
 10
37.564616
 20
239.901085
 30
0.0
 10
37.394356
 20
239.490043
 30
0.0
 10
37.488468
 20
239.016913
 30
0.0
 10
37.803066
 20
238.702316
 30
0.0
  0
SPLINE
  5
1ec
100
AcDbEntity
  8
Top
 62
7
100
AcDbSpline
 70
8
 71
3
 72
8
 73
4
 74
0
 40
0
 40
0
 40
0
 40
0
 40
1
 40
1
 40
1
 40
1
 10
37.803066
 20
238.702316
 30
0.0
 10
38.117663
 20
238.387718
 30
0.0
 10
38.590793
 20
238.293606
 30
0.0
 10
39.001835
 20
238.463866
 30
0.0
  0
SPLINE
  5
1ed
100
AcDbEntity
  8
Top
 62
7
100
AcDbSpline
 70
8
 71
3
 72
8
 73
4
 74
0
 40
0
 40
0
 40
0
 40
0
 40
1
 40
1
 40
1
 40
1
 10
39.001835
 20
238.463866
 30
0.0
 10
39.412877
 20
238.634125
 30
0.0
 10
39.680883
 20
239.035225
 30
0.0
 10
39.680883
 20
239.480133
 30
0.0
  0
SPLINE
  5
1ee
100
AcDbEntity
  8
Top
 62
7
100
AcDbSpline
 70
8
 71
3
 72
8
 73
4
 74
0
 40
0
 40
0
 40
0
 40
0
 40
1
 40
1
 40
1
 40
1
 10
39.680883
 20
239.480133
 30
0.0
 10
39.680883
 20
239.771871
 30
0.0
 10
39.564990
 20
240.051660
 30
0.0
 10
39.358700
 20
240.257950
 30
0.0
  0
SPLINE
  5
1ef
100
AcDbEntity
  8
Top
 62
7
100
AcDbSpline
 70
8
 71
3
 72
8
 73
4
 74
0
 40
0
 40
0
 40
0
 40
0
 40
1
 40
1
 40
1
 40
1
 10
39.358700
 20
240.257950
 30
0.0
 10
39.152410
 20
240.464240
 30
0.0
 10
38.872621
 20
240.580133
 30
0.0
 10
38.580883
 20
240.580133
 30
0.0
  0
LWPOLYLINE
  5
1f0
100
AcDbEntity
  8
Top
 62
7
100
AcDbPolyline
 90
1
 70
1
 10
19.530146
 20
278.596431
 30
0.0
  0
SPLINE
  5
1f1
100
AcDbEntity
  8
Top
 62
7
100
AcDbSpline
 70
8
 71
3
 72
8
 73
4
 74
0
 40
0
 40
0
 40
0
 40
0
 40
1
 40
1
 40
1
 40
1
 10
19.530146
 20
221.530809
 30
0.0
 10
18.922633
 20
221.530809
 30
0.0
 10
18.430146
 20
221.038322
 30
0.0
 10
18.430146
 20
220.430809
 30
0.0
  0
SPLINE
  5
1f2
100
AcDbEntity
  8
Top
 62
7
100
AcDbSpline
 70
8
 71
3
 72
8
 73
4
 74
0
 40
0
 40
0
 40
0
 40
0
 40
1
 40
1
 40
1
 40
1
 10
18.430146
 20
220.430809
 30
0.0
 10
18.430146
 20
219.823296
 30
0.0
 10
18.922633
 20
219.330809
 30
0.0
 10
19.530146
 20
219.330809
 30
0.0
  0
SPLINE
  5
1f3
100
AcDbEntity
  8
Top
 62
7
100
AcDbSpline
 70
8
 71
3
 72
8
 73
4
 74
0
 40
0
 40
0
 40
0
 40
0
 40
1
 40
1
 40
1
 40
1
 10
19.530146
 20
219.330809
 30
0.0
 10
20.137659
 20
219.330809
 30
0.0
 10
20.630146
 20
219.823296
 30
0.0
 10
20.630146
 20
220.430809
 30
0.0
  0
SPLINE
  5
1f4
100
AcDbEntity
  8
Top
 62
7
100
AcDbSpline
 70
8
 71
3
 72
8
 73
4
 74
0
 40
0
 40
0
 40
0
 40
0
 40
1
 40
1
 40
1
 40
1
 10
20.630146
 20
220.430809
 30
0.0
 10
20.630146
 20
220.722547
 30
0.0
 10
20.514253
 20
221.002336
 30
0.0
 10
20.307963
 20
221.208626
 30
0.0
  0
SPLINE
  5
1f5
100
AcDbEntity
  8
Top
 62
7
100
AcDbSpline
 70
8
 71
3
 72
8
 73
4
 74
0
 40
0
 40
0
 40
0
 40
0
 40
1
 40
1
 40
1
 40
1
 10
20.307963
 20
221.208626
 30
0.0
 10
20.101673
 20
221.414916
 30
0.0
 10
19.821884
 20
221.530809
 30
0.0
 10
19.530146
 20
221.530809
 30
0.0
  0
LWPOLYLINE
  5
1f6
100
AcDbEntity
  8
Top
 62
7
100
AcDbPolyline
 90
1
 70
1
 10
38.580883
 20
240.580133
 30
0.0
  0
SPLINE
  5
1f7
100
AcDbEntity
  8
Top
 62
7
100
AcDbSpline
 70
8
 71
3
 72
8
 73
4
 74
0
 40
0
 40
0
 40
0
 40
0
 40
1
 40
1
 40
1
 40
1
 10
82.104485
 20
295.095897
 30
0.0
 10
81.659577
 20
295.095897
 30
0.0
 10
81.258477
 20
294.827890
 30
0.0
 10
81.088218
 20
294.416848
 30
0.0
  0
SPLINE
  5
1f8
100
AcDbEntity
  8
Top
 62
7
100
AcDbSpline
 70
8
 71
3
 72
8
 73
4
 74
0
 40
0
 40
0
 40
0
 40
0
 40
1
 40
1
 40
1
 40
1
 10
81.088218
 20
294.416848
 30
0.0
 10
80.917958
 20
294.005807
 30
0.0
 10
81.012070
 20
293.532677
 30
0.0
 10
81.326668
 20
293.218079
 30
0.0
  0
SPLINE
  5
1f9
100
AcDbEntity
  8
Top
 62
7
100
AcDbSpline
 70
8
 71
3
 72
8
 73
4
 74
0
 40
0
 40
0
 40
0
 40
0
 40
1
 40
1
 40
1
 40
1
 10
81.326668
 20
293.218079
 30
0.0
 10
81.641265
 20
292.903481
 30
0.0
 10
82.114395
 20
292.809370
 30
0.0
 10
82.525437
 20
292.979629
 30
0.0
  0
SPLINE
  5
1fa
100
AcDbEntity
  8
Top
 62
7
100
AcDbSpline
 70
8
 71
3
 72
8
 73
4
 74
0
 40
0
 40
0
 40
0
 40
0
 40
1
 40
1
 40
1
 40
1
 10
82.525437
 20
292.979629
 30
0.0
 10
82.936479
 20
293.149888
 30
0.0
 10
83.204485
 20
293.550988
 30
0.0
 10
83.204485
 20
293.995897
 30
0.0
  0
SPLINE
  5
1fb
100
AcDbEntity
  8
Top
 62
7
100
AcDbSpline
 70
8
 71
3
 72
8
 73
4
 74
0
 40
0
 40
0
 40
0
 40
0
 40
1
 40
1
 40
1
 40
1
 10
83.204485
 20
293.995897
 30
0.0
 10
83.204485
 20
294.287635
 30
0.0
 10
83.088592
 20
294.567424
 30
0.0
 10
82.882302
 20
294.773714
 30
0.0
  0
SPLINE
  5
1fc
100
AcDbEntity
  8
Top
 62
7
100
AcDbSpline
 70
8
 71
3
 72
8
 73
4
 74
0
 40
0
 40
0
 40
0
 40
0
 40
1
 40
1
 40
1
 40
1
 10
82.882302
 20
294.773714
 30
0.0
 10
82.676012
 20
294.980004
 30
0.0
 10
82.396223
 20
295.095897
 30
0.0
 10
82.104485
 20
295.095897
 30
0.0
  0
LWPOLYLINE
  5
1fd
100
AcDbEntity
  8
Top
 62
7
100
AcDbPolyline
 90
1
 70
1
 10
19.530146
 20
221.530809
 30
0.0
  0
SPLINE
  5
1fe
100
AcDbEntity
  8
Top
 62
7
100
AcDbSpline
 70
8
 71
3
 72
8
 73
4
 74
0
 40
0
 40
0
 40
0
 40
0
 40
1
 40
1
 40
1
 40
1
 10
82.104485
 20
260.049966
 30
0.0
 10
81.659577
 20
260.049966
 30
0.0
 10
81.258477
 20
259.781960
 30
0.0
 10
81.088218
 20
259.370918
 30
0.0
  0
SPLINE
  5
1ff
100
AcDbEntity
  8
Top
 62
7
100
AcDbSpline
 70
8
 71
3
 72
8
 73
4
 74
0
 40
0
 40
0
 40
0
 40
0
 40
1
 40
1
 40
1
 40
1
 10
81.088218
 20
259.370918
 30
0.0
 10
80.917958
 20
258.959876
 30
0.0
 10
81.012070
 20
258.486746
 30
0.0
 10
81.326668
 20
258.172149
 30
0.0
  0
SPLINE
  5
200
100
AcDbEntity
  8
Top
 62
7
100
AcDbSpline
 70
8
 71
3
 72
8
 73
4
 74
0
 40
0
 40
0
 40
0
 40
0
 40
1
 40
1
 40
1
 40
1
 10
81.326668
 20
258.172149
 30
0.0
 10
81.641265
 20
257.857551
 30
0.0
 10
82.114395
 20
257.763439
 30
0.0
 10
82.525437
 20
257.933699
 30
0.0
  0
SPLINE
  5
201
100
AcDbEntity
  8
Top
 62
7
100
AcDbSpline
 70
8
 71
3
 72
8
 73
4
 74
0
 40
0
 40
0
 40
0
 40
0
 40
1
 40
1
 40
1
 40
1
 10
82.525437
 20
257.933699
 30
0.0
 10
82.936479
 20
258.103958
 30
0.0
 10
83.204485
 20
258.505058
 30
0.0
 10
83.204485
 20
258.949966
 30
0.0
  0
SPLINE
  5
202
100
AcDbEntity
  8
Top
 62
7
100
AcDbSpline
 70
8
 71
3
 72
8
 73
4
 74
0
 40
0
 40
0
 40
0
 40
0
 40
1
 40
1
 40
1
 40
1
 10
83.204485
 20
258.949966
 30
0.0
 10
83.204485
 20
259.241704
 30
0.0
 10
83.088592
 20
259.521493
 30
0.0
 10
82.882302
 20
259.727783
 30
0.0
  0
SPLINE
  5
203
100
AcDbEntity
  8
Top
 62
7
100
AcDbSpline
 70
8
 71
3
 72
8
 73
4
 74
0
 40
0
 40
0
 40
0
 40
0
 40
1
 40
1
 40
1
 40
1
 10
82.882302
 20
259.727783
 30
0.0
 10
82.676012
 20
259.934073
 30
0.0
 10
82.396223
 20
260.049966
 30
0.0
 10
82.104485
 20
260.049966
 30
0.0
  0
LWPOLYLINE
  5
204
100
AcDbEntity
  8
Top
 62
7
100
AcDbPolyline
 90
1
 70
1
 10
82.104485
 20
295.095897
 30
0.0
  0
LWPOLYLINE
  5
205
100
AcDbEntity
  8
Top
 62
7
100
AcDbPolyline
 90
1
 70
1
 10
82.104485
 20
260.049966
 30
0.0
  0
SPLINE
  5
206
100
AcDbEntity
  8
Bottom
 62
7
100
AcDbSpline
 70
8
 71
3
 72
8
 73
4
 74
0
 40
0
 40
0
 40
0
 40
0
 40
1
 40
1
 40
1
 40
1
 10
86.263151
 20
296.950000
 30
0.0
 10
87.267486
 20
296.950000
 30
0.0
 10
88.230686
 20
296.551030
 30
0.0
 10
88.940858
 20
295.840858
 30
0.0
  0
SPLINE
  5
207
100
AcDbEntity
  8
Bottom
 62
7
100
AcDbSpline
 70
8
 71
3
 72
8
 73
4
 74
0
 40
0
 40
0
 40
0
 40
0
 40
1
 40
1
 40
1
 40
1
 10
88.940858
 20
295.840858
 30
0.0
 10
89.651030
 20
295.130686
 30
0.0
 10
90.050000
 20
294.167486
 30
0.0
 10
90.050000
 20
293.163151
 30
0.0
  0
LWPOLYLINE
  5
208
100
AcDbEntity
  8
Bottom
 62
7
100
AcDbPolyline
 90
2
 70
0
 10
3.836849
 20
296.950000
 30
0.0
 10
86.263151
 20
296.950000
 30
0.0
  0
SPLINE
  5
209
100
AcDbEntity
  8
Bottom
 62
7
100
AcDbSpline
 70
8
 71
3
 72
8
 73
4
 74
0
 40
0
 40
0
 40
0
 40
0
 40
1
 40
1
 40
1
 40
1
 10
90.050000
 20
204.736849
 30
0.0
 10
90.050000
 20
203.732514
 30
0.0
 10
89.651030
 20
202.769314
 30
0.0
 10
88.940858
 20
202.059142
 30
0.0
  0
SPLINE
  5
20a
100
AcDbEntity
  8
Bottom
 62
7
100
AcDbSpline
 70
8
 71
3
 72
8
 73
4
 74
0
 40
0
 40
0
 40
0
 40
0
 40
1
 40
1
 40
1
 40
1
 10
88.940858
 20
202.059142
 30
0.0
 10
88.230686
 20
201.348970
 30
0.0
 10
87.267486
 20
200.950000
 30
0.0
 10
86.263151
 20
200.950000
 30
0.0
  0
LWPOLYLINE
  5
20b
100
AcDbEntity
  8
Bottom
 62
7
100
AcDbPolyline
 90
2
 70
0
 10
90.050000
 20
293.163151
 30
0.0
 10
90.050000
 20
204.736849
 30
0.0
  0
SPLINE
  5
20c
100
AcDbEntity
  8
Bottom
 62
7
100
AcDbSpline
 70
8
 71
3
 72
8
 73
4
 74
0
 40
0
 40
0
 40
0
 40
0
 40
1
 40
1
 40
1
 40
1
 10
3.836849
 20
200.950000
 30
0.0
 10
2.832514
 20
200.950000
 30
0.0
 10
1.869314
 20
201.348970
 30
0.0
 10
1.159142
 20
202.059142
 30
0.0
  0
SPLINE
  5
20d
100
AcDbEntity
  8
Bottom
 62
7
100
AcDbSpline
 70
8
 71
3
 72
8
 73
4
 74
0
 40
0
 40
0
 40
0
 40
0
 40
1
 40
1
 40
1
 40
1
 10
1.159142
 20
202.059142
 30
0.0
 10
0.448970
 20
202.769314
 30
0.0
 10
0.050000
 20
203.732514
 30
0.0
 10
0.050000
 20
204.736849
 30
0.0
  0
LWPOLYLINE
  5
20e
100
AcDbEntity
  8
Bottom
 62
7
100
AcDbPolyline
 90
2
 70
0
 10
86.263151
 20
200.950000
 30
0.0
 10
3.836849
 20
200.950000
 30
0.0
  0
SPLINE
  5
20f
100
AcDbEntity
  8
Bottom
 62
7
100
AcDbSpline
 70
8
 71
3
 72
8
 73
4
 74
0
 40
0
 40
0
 40
0
 40
0
 40
1
 40
1
 40
1
 40
1
 10
0.050000
 20
293.163151
 30
0.0
 10
0.050000
 20
294.167486
 30
0.0
 10
0.448970
 20
295.130686
 30
0.0
 10
1.159142
 20
295.840858
 30
0.0
  0
SPLINE
  5
210
100
AcDbEntity
  8
Bottom
 62
7
100
AcDbSpline
 70
8
 71
3
 72
8
 73
4
 74
0
 40
0
 40
0
 40
0
 40
0
 40
1
 40
1
 40
1
 40
1
 10
1.159142
 20
295.840858
 30
0.0
 10
1.869314
 20
296.551030
 30
0.0
 10
2.832514
 20
296.950000
 30
0.0
 10
3.836849
 20
296.950000
 30
0.0
  0
LWPOLYLINE
  5
211
100
AcDbEntity
  8
Bottom
 62
7
100
AcDbPolyline
 90
2
 70
0
 10
0.050000
 20
204.736849
 30
0.0
 10
0.050000
 20
293.163151
 30
0.0
  0
SPLINE
  5
212
100
AcDbEntity
  8
Bottom
 62
7
100
AcDbSpline
 70
8
 71
3
 72
8
 73
4
 74
0
 40
0
 40
0
 40
0
 40
0
 40
1
 40
1
 40
1
 40
1
 10
19.518299
 20
278.571010
 30
0.0
 10
19.073391
 20
278.571010
 30
0.0
 10
18.672291
 20
278.303004
 30
0.0
 10
18.502032
 20
277.891962
 30
0.0
  0
SPLINE
  5
213
100
AcDbEntity
  8
Bottom
 62
7
100
AcDbSpline
 70
8
 71
3
 72
8
 73
4
 74
0
 40
0
 40
0
 40
0
 40
0
 40
1
 40
1
 40
1
 40
1
 10
18.502032
 20
277.891962
 30
0.0
 10
18.331772
 20
277.480920
 30
0.0
 10
18.425884
 20
277.007790
 30
0.0
 10
18.740482
 20
276.693193
 30
0.0
  0
SPLINE
  5
214
100
AcDbEntity
  8
Bottom
 62
7
100
AcDbSpline
 70
8
 71
3
 72
8
 73
4
 74
0
 40
0
 40
0
 40
0
 40
0
 40
1
 40
1
 40
1
 40
1
 10
18.740482
 20
276.693193
 30
0.0
 10
19.055079
 20
276.378595
 30
0.0
 10
19.528209
 20
276.284483
 30
0.0
 10
19.939251
 20
276.454743
 30
0.0
  0
SPLINE
  5
215
100
AcDbEntity
  8
Bottom
 62
7
100
AcDbSpline
 70
8
 71
3
 72
8
 73
4
 74
0
 40
0
 40
0
 40
0
 40
0
 40
1
 40
1
 40
1
 40
1
 10
19.939251
 20
276.454743
 30
0.0
 10
20.350293
 20
276.625002
 30
0.0
 10
20.618299
 20
277.026102
 30
0.0
 10
20.618299
 20
277.471010
 30
0.0
  0
SPLINE
  5
216
100
AcDbEntity
  8
Bottom
 62
7
100
AcDbSpline
 70
8
 71
3
 72
8
 73
4
 74
0
 40
0
 40
0
 40
0
 40
0
 40
1
 40
1
 40
1
 40
1
 10
20.618299
 20
277.471010
 30
0.0
 10
20.618299
 20
277.762748
 30
0.0
 10
20.502406
 20
278.042537
 30
0.0
 10
20.296116
 20
278.248827
 30
0.0
  0
SPLINE
  5
217
100
AcDbEntity
  8
Bottom
 62
7
100
AcDbSpline
 70
8
 71
3
 72
8
 73
4
 74
0
 40
0
 40
0
 40
0
 40
0
 40
1
 40
1
 40
1
 40
1
 10
20.296116
 20
278.248827
 30
0.0
 10
20.089826
 20
278.455117
 30
0.0
 10
19.810037
 20
278.571010
 30
0.0
 10
19.518299
 20
278.571010
 30
0.0
  0
LWPOLYLINE
  5
218
100
AcDbEntity
  8
Bottom
 62
7
100
AcDbPolyline
 90
1
 70
1
 10
3.836849
 20
296.950000
 30
0.0
  0
SPLINE
  5
219
100
AcDbEntity
  8
Bottom
 62
7
100
AcDbSpline
 70
8
 71
3
 72
8
 73
4
 74
0
 40
0
 40
0
 40
0
 40
0
 40
1
 40
1
 40
1
 40
1
 10
38.565823
 20
259.527917
 30
0.0
 10
38.120915
 20
259.527917
 30
0.0
 10
37.719815
 20
259.259911
 30
0.0
 10
37.549556
 20
258.848869
 30
0.0
  0
SPLINE
  5
21a
100
AcDbEntity
  8
Bottom
 62
7
100
AcDbSpline
 70
8
 71
3
 72
8
 73
4
 74
0
 40
0
 40
0
 40
0
 40
0
 40
1
 40
1
 40
1
 40
1
 10
37.549556
 20
258.848869
 30
0.0
 10
37.379296
 20
258.437827
 30
0.0
 10
37.473408
 20
257.964697
 30
0.0
 10
37.788006
 20
257.650100
 30
0.0
  0
SPLINE
  5
21b
100
AcDbEntity
  8
Bottom
 62
7
100
AcDbSpline
 70
8
 71
3
 72
8
 73
4
 74
0
 40
0
 40
0
 40
0
 40
0
 40
1
 40
1
 40
1
 40
1
 10
37.788006
 20
257.650100
 30
0.0
 10
38.102603
 20
257.335502
 30
0.0
 10
38.575733
 20
257.241390
 30
0.0
 10
38.986775
 20
257.411650
 30
0.0
  0
SPLINE
  5
21c
100
AcDbEntity
  8
Bottom
 62
7
100
AcDbSpline
 70
8
 71
3
 72
8
 73
4
 74
0
 40
0
 40
0
 40
0
 40
0
 40
1
 40
1
 40
1
 40
1
 10
38.986775
 20
257.411650
 30
0.0
 10
39.397817
 20
257.581909
 30
0.0
 10
39.665823
 20
257.983009
 30
0.0
 10
39.665823
 20
258.427917
 30
0.0
  0
SPLINE
  5
21d
100
AcDbEntity
  8
Bottom
 62
7
100
AcDbSpline
 70
8
 71
3
 72
8
 73
4
 74
0
 40
0
 40
0
 40
0
 40
0
 40
1
 40
1
 40
1
 40
1
 10
39.665823
 20
258.427917
 30
0.0
 10
39.665823
 20
258.719655
 30
0.0
 10
39.549930
 20
258.999444
 30
0.0
 10
39.343640
 20
259.205734
 30
0.0
  0
SPLINE
  5
21e
100
AcDbEntity
  8
Bottom
 62
7
100
AcDbSpline
 70
8
 71
3
 72
8
 73
4
 74
0
 40
0
 40
0
 40
0
 40
0
 40
1
 40
1
 40
1
 40
1
 10
39.343640
 20
259.205734
 30
0.0
 10
39.137350
 20
259.412024
 30
0.0
 10
38.857561
 20
259.527917
 30
0.0
 10
38.565823
 20
259.527917
 30
0.0
  0
LWPOLYLINE
  5
21f
100
AcDbEntity
  8
Bottom
 62
7
100
AcDbPolyline
 90
1
 70
1
 10
19.518299
 20
278.571010
 30
0.0
  0
SPLINE
  5
220
100
AcDbEntity
  8
Bottom
 62
7
100
AcDbSpline
 70
8
 71
3
 72
8
 73
4
 74
0
 40
0
 40
0
 40
0
 40
0
 40
1
 40
1
 40
1
 40
1
 10
38.574215
 20
240.564237
 30
0.0
 10
38.129307
 20
240.564237
 30
0.0
 10
37.728207
 20
240.296231
 30
0.0
 10
37.557948
 20
239.885189
 30
0.0
  0
SPLINE
  5
221
100
AcDbEntity
  8
Bottom
 62
7
100
AcDbSpline
 70
8
 71
3
 72
8
 73
4
 74
0
 40
0
 40
0
 40
0
 40
0
 40
1
 40
1
 40
1
 40
1
 10
37.557948
 20
239.885189
 30
0.0
 10
37.387688
 20
239.474147
 30
0.0
 10
37.481800
 20
239.001017
 30
0.0
 10
37.796398
 20
238.686420
 30
0.0
  0
SPLINE
  5
222
100
AcDbEntity
  8
Bottom
 62
7
100
AcDbSpline
 70
8
 71
3
 72
8
 73
4
 74
0
 40
0
 40
0
 40
0
 40
0
 40
1
 40
1
 40
1
 40
1
 10
37.796398
 20
238.686420
 30
0.0
 10
38.110995
 20
238.371822
 30
0.0
 10
38.584125
 20
238.277710
 30
0.0
 10
38.995167
 20
238.447970
 30
0.0
  0
SPLINE
  5
223
100
AcDbEntity
  8
Bottom
 62
7
100
AcDbSpline
 70
8
 71
3
 72
8
 73
4
 74
0
 40
0
 40
0
 40
0
 40
0
 40
1
 40
1
 40
1
 40
1
 10
38.995167
 20
238.447970
 30
0.0
 10
39.406209
 20
238.618229
 30
0.0
 10
39.674215
 20
239.019329
 30
0.0
 10
39.674215
 20
239.464237
 30
0.0
  0
SPLINE
  5
224
100
AcDbEntity
  8
Bottom
 62
7
100
AcDbSpline
 70
8
 71
3
 72
8
 73
4
 74
0
 40
0
 40
0
 40
0
 40
0
 40
1
 40
1
 40
1
 40
1
 10
39.674215
 20
239.464237
 30
0.0
 10
39.674215
 20
239.755975
 30
0.0
 10
39.558322
 20
240.035764
 30
0.0
 10
39.352032
 20
240.242054
 30
0.0
  0
SPLINE
  5
225
100
AcDbEntity
  8
Bottom
 62
7
100
AcDbSpline
 70
8
 71
3
 72
8
 73
4
 74
0
 40
0
 40
0
 40
0
 40
0
 40
1
 40
1
 40
1
 40
1
 10
39.352032
 20
240.242054
 30
0.0
 10
39.145742
 20
240.448344
 30
0.0
 10
38.865953
 20
240.564237
 30
0.0
 10
38.574215
 20
240.564237
 30
0.0
  0
LWPOLYLINE
  5
226
100
AcDbEntity
  8
Bottom
 62
7
100
AcDbPolyline
 90
1
 70
1
 10
38.565823
 20
259.527917
 30
0.0
  0
SPLINE
  5
227
100
AcDbEntity
  8
Bottom
 62
7
100
AcDbSpline
 70
8
 71
3
 72
8
 73
4
 74
0
 40
0
 40
0
 40
0
 40
0
 40
1
 40
1
 40
1
 40
1
 10
19.517536
 20
221.519289
 30
0.0
 10
19.072628
 20
221.519289
 30
0.0
 10
18.671528
 20
221.251283
 30
0.0
 10
18.501269
 20
220.840241
 30
0.0
  0
SPLINE
  5
228
100
AcDbEntity
  8
Bottom
 62
7
100
AcDbSpline
 70
8
 71
3
 72
8
 73
4
 74
0
 40
0
 40
0
 40
0
 40
0
 40
1
 40
1
 40
1
 40
1
 10
18.501269
 20
220.840241
 30
0.0
 10
18.331009
 20
220.429199
 30
0.0
 10
18.425121
 20
219.956069
 30
0.0
 10
18.739719
 20
219.641472
 30
0.0
  0
SPLINE
  5
229
100
AcDbEntity
  8
Bottom
 62
7
100
AcDbSpline
 70
8
 71
3
 72
8
 73
4
 74
0
 40
0
 40
0
 40
0
 40
0
 40
1
 40
1
 40
1
 40
1
 10
18.739719
 20
219.641472
 30
0.0
 10
19.054316
 20
219.326874
 30
0.0
 10
19.527446
 20
219.232762
 30
0.0
 10
19.938488
 20
219.403022
 30
0.0
  0
SPLINE
  5
22a
100
AcDbEntity
  8
Bottom
 62
7
100
AcDbSpline
 70
8
 71
3
 72
8
 73
4
 74
0
 40
0
 40
0
 40
0
 40
0
 40
1
 40
1
 40
1
 40
1
 10
19.938488
 20
219.403022
 30
0.0
 10
20.349530
 20
219.573281
 30
0.0
 10
20.617536
 20
219.974381
 30
0.0
 10
20.617536
 20
220.419289
 30
0.0
  0
SPLINE
  5
22b
100
AcDbEntity
  8
Bottom
 62
7
100
AcDbSpline
 70
8
 71
3
 72
8
 73
4
 74
0
 40
0
 40
0
 40
0
 40
0
 40
1
 40
1
 40
1
 40
1
 10
20.617536
 20
220.419289
 30
0.0
 10
20.617536
 20
220.711027
 30
0.0
 10
20.501643
 20
220.990816
 30
0.0
 10
20.295353
 20
221.197106
 30
0.0
  0
SPLINE
  5
22c
100
AcDbEntity
  8
Bottom
 62
7
100
AcDbSpline
 70
8
 71
3
 72
8
 73
4
 74
0
 40
0
 40
0
 40
0
 40
0
 40
1
 40
1
 40
1
 40
1
 10
20.295353
 20
221.197106
 30
0.0
 10
20.089063
 20
221.403396
 30
0.0
 10
19.809274
 20
221.519289
 30
0.0
 10
19.517536
 20
221.519289
 30
0.0
  0
LWPOLYLINE
  5
22d
100
AcDbEntity
  8
Bottom
 62
7
100
AcDbPolyline
 90
1
 70
1
 10
38.574215
 20
240.564237
 30
0.0
  0
SPLINE
  5
22e
100
AcDbEntity
  8
Bottom
 62
7
100
AcDbSpline
 70
8
 71
3
 72
8
 73
4
 74
0
 40
0
 40
0
 40
0
 40
0
 40
1
 40
1
 40
1
 40
1
 10
72.604126
 20
214.059709
 30
0.0
 10
72.159218
 20
214.059709
 30
0.0
 10
71.758118
 20
213.791703
 30
0.0
 10
71.587859
 20
213.380661
 30
0.0
  0
SPLINE
  5
22f
100
AcDbEntity
  8
Bottom
 62
7
100
AcDbSpline
 70
8
 71
3
 72
8
 73
4
 74
0
 40
0
 40
0
 40
0
 40
0
 40
1
 40
1
 40
1
 40
1
 10
71.587859
 20
213.380661
 30
0.0
 10
71.417599
 20
212.969619
 30
0.0
 10
71.511711
 20
212.496489
 30
0.0
 10
71.826309
 20
212.181892
 30
0.0
  0
SPLINE
  5
230
100
AcDbEntity
  8
Bottom
 62
7
100
AcDbSpline
 70
8
 71
3
 72
8
 73
4
 74
0
 40
0
 40
0
 40
0
 40
0
 40
1
 40
1
 40
1
 40
1
 10
71.826309
 20
212.181892
 30
0.0
 10
72.140906
 20
211.867294
 30
0.0
 10
72.614036
 20
211.773182
 30
0.0
 10
73.025078
 20
211.943442
 30
0.0
  0
SPLINE
  5
231
100
AcDbEntity
  8
Bottom
 62
7
100
AcDbSpline
 70
8
 71
3
 72
8
 73
4
 74
0
 40
0
 40
0
 40
0
 40
0
 40
1
 40
1
 40
1
 40
1
 10
73.025078
 20
211.943442
 30
0.0
 10
73.436120
 20
212.113701
 30
0.0
 10
73.704126
 20
212.514801
 30
0.0
 10
73.704126
 20
212.959709
 30
0.0
  0
SPLINE
  5
232
100
AcDbEntity
  8
Bottom
 62
7
100
AcDbSpline
 70
8
 71
3
 72
8
 73
4
 74
0
 40
0
 40
0
 40
0
 40
0
 40
1
 40
1
 40
1
 40
1
 10
73.704126
 20
212.959709
 30
0.0
 10
73.704126
 20
213.251447
 30
0.0
 10
73.588233
 20
213.531236
 30
0.0
 10
73.381943
 20
213.737526
 30
0.0
  0
SPLINE
  5
233
100
AcDbEntity
  8
Bottom
 62
7
100
AcDbSpline
 70
8
 71
3
 72
8
 73
4
 74
0
 40
0
 40
0
 40
0
 40
0
 40
1
 40
1
 40
1
 40
1
 10
73.381943
 20
213.737526
 30
0.0
 10
73.175653
 20
213.943816
 30
0.0
 10
72.895864
 20
214.059709
 30
0.0
 10
72.604126
 20
214.059709
 30
0.0
  0
LWPOLYLINE
  5
234
100
AcDbEntity
  8
Bottom
 62
7
100
AcDbPolyline
 90
1
 70
1
 10
19.517536
 20
221.519289
 30
0.0
  0
SPLINE
  5
235
100
AcDbEntity
  8
Bottom
 62
7
100
AcDbSpline
 70
8
 71
3
 72
8
 73
4
 74
0
 40
0
 40
0
 40
0
 40
0
 40
1
 40
1
 40
1
 40
1
 10
82.091919
 20
260.035181
 30
0.0
 10
81.647011
 20
260.035181
 30
0.0
 10
81.245911
 20
259.767175
 30
0.0
 10
81.075652
 20
259.356133
 30
0.0
  0
SPLINE
  5
236
100
AcDbEntity
  8
Bottom
 62
7
100
AcDbSpline
 70
8
 71
3
 72
8
 73
4
 74
0
 40
0
 40
0
 40
0
 40
0
 40
1
 40
1
 40
1
 40
1
 10
81.075652
 20
259.356133
 30
0.0
 10
80.905392
 20
258.945091
 30
0.0
 10
80.999504
 20
258.471961
 30
0.0
 10
81.314102
 20
258.157364
 30
0.0
  0
SPLINE
  5
237
100
AcDbEntity
  8
Bottom
 62
7
100
AcDbSpline
 70
8
 71
3
 72
8
 73
4
 74
0
 40
0
 40
0
 40
0
 40
0
 40
1
 40
1
 40
1
 40
1
 10
81.314102
 20
258.157364
 30
0.0
 10
81.628699
 20
257.842766
 30
0.0
 10
82.101829
 20
257.748654
 30
0.0
 10
82.512871
 20
257.918914
 30
0.0
  0
SPLINE
  5
238
100
AcDbEntity
  8
Bottom
 62
7
100
AcDbSpline
 70
8
 71
3
 72
8
 73
4
 74
0
 40
0
 40
0
 40
0
 40
0
 40
1
 40
1
 40
1
 40
1
 10
82.512871
 20
257.918914
 30
0.0
 10
82.923913
 20
258.089173
 30
0.0
 10
83.191919
 20
258.490273
 30
0.0
 10
83.191919
 20
258.935181
 30
0.0
  0
SPLINE
  5
239
100
AcDbEntity
  8
Bottom
 62
7
100
AcDbSpline
 70
8
 71
3
 72
8
 73
4
 74
0
 40
0
 40
0
 40
0
 40
0
 40
1
 40
1
 40
1
 40
1
 10
83.191919
 20
258.935181
 30
0.0
 10
83.191919
 20
259.226919
 30
0.0
 10
83.076026
 20
259.506708
 30
0.0
 10
82.869736
 20
259.712998
 30
0.0
  0
SPLINE
  5
23a
100
AcDbEntity
  8
Bottom
 62
7
100
AcDbSpline
 70
8
 71
3
 72
8
 73
4
 74
0
 40
0
 40
0
 40
0
 40
0
 40
1
 40
1
 40
1
 40
1
 10
82.869736
 20
259.712998
 30
0.0
 10
82.663446
 20
259.919288
 30
0.0
 10
82.383657
 20
260.035181
 30
0.0
 10
82.091919
 20
260.035181
 30
0.0
  0
LWPOLYLINE
  5
23b
100
AcDbEntity
  8
Bottom
 62
7
100
AcDbPolyline
 90
1
 70
1
 10
72.604126
 20
214.059709
 30
0.0
  0
SPLINE
  5
23c
100
AcDbEntity
  8
Bottom
 62
7
100
AcDbSpline
 70
8
 71
3
 72
8
 73
4
 74
0
 40
0
 40
0
 40
0
 40
0
 40
1
 40
1
 40
1
 40
1
 10
82.087799
 20
295.088319
 30
0.0
 10
81.642891
 20
295.088319
 30
0.0
 10
81.241791
 20
294.820312
 30
0.0
 10
81.071532
 20
294.409270
 30
0.0
  0
SPLINE
  5
23d
100
AcDbEntity
  8
Bottom
 62
7
100
AcDbSpline
 70
8
 71
3
 72
8
 73
4
 74
0
 40
0
 40
0
 40
0
 40
0
 40
1
 40
1
 40
1
 40
1
 10
81.071532
 20
294.409270
 30
0.0
 10
80.901272
 20
293.998229
 30
0.0
 10
80.995384
 20
293.525099
 30
0.0
 10
81.309982
 20
293.210501
 30
0.0
  0
SPLINE
  5
23e
100
AcDbEntity
  8
Bottom
 62
7
100
AcDbSpline
 70
8
 71
3
 72
8
 73
4
 74
0
 40
0
 40
0
 40
0
 40
0
 40
1
 40
1
 40
1
 40
1
 10
81.309982
 20
293.210501
 30
0.0
 10
81.624579
 20
292.895903
 30
0.0
 10
82.097709
 20
292.801792
 30
0.0
 10
82.508751
 20
292.972051
 30
0.0
  0
SPLINE
  5
23f
100
AcDbEntity
  8
Bottom
 62
7
100
AcDbSpline
 70
8
 71
3
 72
8
 73
4
 74
0
 40
0
 40
0
 40
0
 40
0
 40
1
 40
1
 40
1
 40
1
 10
82.508751
 20
292.972051
 30
0.0
 10
82.919793
 20
293.142310
 30
0.0
 10
83.187799
 20
293.543410
 30
0.0
 10
83.187799
 20
293.988319
 30
0.0
  0
SPLINE
  5
240
100
AcDbEntity
  8
Bottom
 62
7
100
AcDbSpline
 70
8
 71
3
 72
8
 73
4
 74
0
 40
0
 40
0
 40
0
 40
0
 40
1
 40
1
 40
1
 40
1
 10
83.187799
 20
293.988319
 30
0.0
 10
83.187799
 20
294.280057
 30
0.0
 10
83.071906
 20
294.559846
 30
0.0
 10
82.865616
 20
294.766136
 30
0.0
  0
SPLINE
  5
241
100
AcDbEntity
  8
Bottom
 62
7
100
AcDbSpline
 70
8
 71
3
 72
8
 73
4
 74
0
 40
0
 40
0
 40
0
 40
0
 40
1
 40
1
 40
1
 40
1
 10
82.865616
 20
294.766136
 30
0.0
 10
82.659326
 20
294.972426
 30
0.0
 10
82.379537
 20
295.088319
 30
0.0
 10
82.087799
 20
295.088319
 30
0.0
  0
LWPOLYLINE
  5
242
100
AcDbEntity
  8
Bottom
 62
7
100
AcDbPolyline
 90
1
 70
1
 10
82.091919
 20
260.035181
 30
0.0
  0
LWPOLYLINE
  5
243
100
AcDbEntity
  8
Bottom
 62
7
100
AcDbPolyline
 90
1
 70
1
 10
82.087799
 20
295.088319
 30
0.0
  0
ENDSEC
  0
SECTION
  2
OBJECTS
  0
DICTIONARY
  5
C
330
0
100
AcDbDictionary
  3
ACAD_GROUP
350
D
  3
ACAD_MLINESTYLE
350
17
  0
DICTIONARY
  5
D
330
C
100
AcDbDictionary
  0
DICTIONARY
  5
1A
330
C
100
AcDbDictionary
  0
DICTIONARY
  5
17
330
C
100
AcDbDictionary
  3
STANDARD
350
18
  0
DICTIONARY
  5
19
330
C
100
AcDbDictionary
  0
ENDSEC
  0
EOF
